<svg width="20" height="20" viewBox="0 0 20 20" fill="none" xmlns="http://www.w3.org/2000/svg">
<path d="M19.737 8.26554L19.7317 8.24442L16.7697 0.718053C16.6377 0.293029 16.2444 0 15.7983 0H3.79198C3.3432 0 2.94457 0.298309 2.81785 0.728613L0.0485961 8.17842L0.0406767 8.1969L0.0353966 8.21802C0.00107788 8.34737 -0.00948173 8.47937 0.00899759 8.60872C0.00635769 8.65096 0.00371786 8.6932 0.00371786 8.73544V18.3948C0.00441594 18.8203 0.173744 19.2282 0.4746 19.529C0.775456 19.8299 1.1833 19.9992 1.60878 19.9999H18.1663C19.0506 19.9999 19.7713 19.2792 19.7739 18.3948V8.73544C19.7739 8.70112 19.774 8.6668 19.7713 8.63776C19.7819 8.50841 19.7713 8.38433 19.737 8.26554ZM11.9282 7.13038L11.9202 7.54484C11.8991 8.73016 11.0807 9.52741 9.88487 9.52741C9.30146 9.52741 8.79987 9.33998 8.43821 8.98359C8.07654 8.6272 7.87855 8.1309 7.86799 7.54484L7.86007 7.13038H2.42715L4.52587 2.02745H15.0644L17.2212 7.13038H11.9282ZM2.02852 9.15782H6.18109C6.82259 10.6652 8.18742 11.5549 9.88751 11.5549C10.7772 11.5549 11.6035 11.3067 12.2713 10.8368C12.8574 10.425 13.3141 9.84948 13.6098 9.15782H17.7412V17.9725H2.02852V9.15782Z" fill="#CBCFD4"/>
</svg>
