<svg width="24" height="19" viewBox="0 0 24 19" fill="none" xmlns="http://www.w3.org/2000/svg">
<path d="M0 8.3125V18.4063C0 18.7343 0.2685 19 0.6 19H3.6V7.125H1.2C0.537375 7.125 0 7.65678 0 8.3125ZM13.5 6.53125H12.6V5.04688C12.6 4.88285 12.4658 4.75 12.3 4.75H11.7C11.5343 4.75 11.4 4.88285 11.4 5.04688V7.42188C11.4 7.5859 11.5343 7.71875 11.7 7.71875H13.5C13.6658 7.71875 13.8 7.5859 13.8 7.42188V6.82813C13.8 6.6641 13.6658 6.53125 13.5 6.53125ZM18.6656 4.15774L12.6656 0.199281C12.4685 0.0693352 12.2369 0 12 0C11.7631 0 11.5315 0.0693352 11.3344 0.199281L5.33438 4.15774C5.17003 4.26616 5.03527 4.41305 4.94206 4.58538C4.84884 4.7577 4.80004 4.95013 4.8 5.14559V19H9.6V13.6563C9.6 13.3282 9.8685 13.0625 10.2 13.0625H13.8C14.1315 13.0625 14.4 13.3282 14.4 13.6563V19H19.2V5.14596C19.2 4.74889 18.9994 4.3778 18.6656 4.15774ZM12 9.5C10.3433 9.5 9 8.17075 9 6.53125C9 4.89176 10.3433 3.5625 12 3.5625C13.6568 3.5625 15 4.89176 15 6.53125C15 8.17075 13.6568 9.5 12 9.5ZM22.8 7.125H20.4V19H23.4C23.7315 19 24 18.7343 24 18.4063V8.3125C24 7.65678 23.4626 7.125 22.8 7.125Z" fill="#D8DBDF"/>
</svg>
