<?xml version="1.0" encoding="utf-8"?>
<!-- Generator: Adobe Illustrator 24.1.3, SVG Export Plug-In . SVG Version: 6.00 Build 0)  -->
<svg version="1.1" id="Layer_1" xmlns="http://www.w3.org/2000/svg" xmlns:xlink="http://www.w3.org/1999/xlink" x="0px" y="0px"
	 viewBox="0 0 20 20" style="enable-background:new 0 0 20 20;" xml:space="preserve">
<style type="text/css">
	.st0{fill:#D3D3D3;}
</style>
<g>
	<path class="st0" d="M19.2,10.7H0.8C0.4,10.7,0,10.3,0,9.9C0,9.4,0.4,9,0.8,9h18.3C19.6,9,20,9.4,20,9.9
		C20,10.3,19.6,10.7,19.2,10.7z"/>
	<path class="st0" d="M19.2,4.3H0.8C0.4,4.3,0,3.9,0,3.5s0.4-0.8,0.8-0.8h18.3C19.6,2.7,20,3,20,3.5S19.6,4.3,19.2,4.3z"/>
	<path class="st0" d="M19.2,17.1H0.8c-0.5,0-0.8-0.4-0.8-0.8c0-0.5,0.4-0.8,0.8-0.8h18.3c0.5,0,0.8,0.4,0.8,0.8
		C20,16.7,19.6,17.1,19.2,17.1z"/>
</g>
</svg>
