<svg width="20" height="11" viewBox="0 0 20 11" fill="none" xmlns="http://www.w3.org/2000/svg">
<path d="M15 0C16.375 0 17.5469 0.5 18.5156 1.5C19.4844 2.46875 19.9688 3.64062 19.9688 5.01562C19.9688 6.39062 19.4844 7.57812 18.5156 8.57812C17.5469 9.54688 16.375 10.0312 15 10.0312H10.9688V8.10938H15C15.8438 8.10938 16.5625 7.8125 17.1562 7.21875C17.7812 6.59375 18.0938 5.85938 18.0938 5.01562C18.0938 4.17188 17.7812 3.45312 17.1562 2.85938C16.5625 2.23437 15.8438 1.92188 15 1.92188H10.9688V0H15ZM6 6V4.03125H13.9688V6H6ZM2.76562 2.85938C2.17188 3.45312 1.875 4.17188 1.875 5.01562C1.875 5.85938 2.17188 6.59375 2.76562 7.21875C3.39062 7.8125 4.125 8.10938 4.96875 8.10938H9V10.0312H4.96875C3.59375 10.0312 2.42188 9.54688 1.45312 8.57812C0.484375 7.57812 0 6.39062 0 5.01562C0 3.64062 0.484375 2.46875 1.45312 1.5C2.42188 0.5 3.59375 0 4.96875 0H9V1.92188H4.96875C4.125 1.92188 3.39062 2.23437 2.76562 2.85938Z" fill="#CBCFD4"/>
</svg>
