<svg width="30" height="30" viewBox="0 0 30 30" fill="none" xmlns="http://www.w3.org/2000/svg">
<path d="M0.5 15C0.5 6.99187 6.99187 0.5 15 0.5C23.0081 0.5 29.5 6.99187 29.5 15C29.5 23.0081 23.0081 29.5 15 29.5C6.99187 29.5 0.5 23.0081 0.5 15Z" stroke="white"/>
<path d="M11.2188 15.4688C11.8021 16.0521 12.5104 16.3438 13.3438 16.3438C14.1771 16.3438 14.8854 16.0521 15.4688 15.4688C16.0521 14.8854 16.3438 14.1771 16.3438 13.3438C16.3438 12.5104 16.0521 11.8021 15.4688 11.2188C14.8854 10.6354 14.1771 10.3438 13.3438 10.3438C12.5104 10.3438 11.8021 10.6354 11.2188 11.2188C10.6354 11.8021 10.3438 12.5104 10.3438 13.3438C10.3438 14.1771 10.6354 14.8854 11.2188 15.4688ZM17.3438 16.3438L20.6562 19.6562L19.6562 20.6562L16.3438 17.3438V16.8125L16.1562 16.625C15.3646 17.3125 14.4271 17.6562 13.3438 17.6562C12.1354 17.6562 11.1042 17.2396 10.25 16.4062C9.41667 15.5729 9 14.5521 9 13.3438C9 12.1354 9.41667 11.1146 10.25 10.2812C11.1042 9.42708 12.1354 9 13.3438 9C14.5521 9 15.5729 9.42708 16.4062 10.2812C17.2396 11.1146 17.6562 12.1354 17.6562 13.3438C17.6562 13.7812 17.5521 14.2812 17.3438 14.8438C17.1354 15.3854 16.8958 15.8229 16.625 16.1562L16.8125 16.3438H17.3438Z" fill="white"/>
</svg>
