<svg width="12" height="13" viewBox="0 0 12 13" fill="none" xmlns="http://www.w3.org/2000/svg">
<path fill-rule="evenodd" clip-rule="evenodd" d="M4.90908 9.45845C2.78186 9.45845 1.09119 7.7678 1.09119 5.6406C1.09119 3.5128 2.78186 1.82214 4.90908 1.82214C7.03631 1.82214 8.72698 3.5128 8.72698 5.6406C8.72698 7.7678 7.03631 9.45845 4.90908 9.45845M11.8365 11.8035L8.72689 8.69453C9.38202 7.87637 9.81798 6.7859 9.81798 5.64049C9.81798 2.9131 7.63641 0.730957 4.90899 0.730957C2.18157 0.730957 0 2.9131 0 5.64049C0 8.36727 2.18157 10.5494 4.90899 10.5494C6.05442 10.5494 7.14551 10.1672 7.96367 9.45834L11.0727 12.5673C11.182 12.6766 11.3456 12.731 11.4543 12.731C11.5636 12.731 11.7272 12.6766 11.8365 12.5673C12.0545 12.3494 12.0545 12.0221 11.8365 11.8035" fill="#444444"/>
</svg>
