<svg width="20" height="18" viewBox="0 0 20 18" fill="none" xmlns="http://www.w3.org/2000/svg">
<path d="M16.3707 11.5934C16.7134 10.7611 16.8994 9.87014 16.8994 8.89103C16.8994 8.18608 16.7917 7.51049 16.6057 6.88386C15.9692 7.03073 15.3034 7.10906 14.6083 7.10906C13.1846 7.11059 11.7815 6.76982 10.5171 6.11548C9.25274 5.46115 8.16422 4.51242 7.3433 3.34929C6.46514 5.47412 4.80852 7.18328 2.71213 8.12733C2.67296 8.37211 2.67296 8.63646 2.67296 8.89103C2.67296 9.8258 2.85708 10.7514 3.2148 11.615C3.57251 12.4786 4.09683 13.2633 4.75781 13.9243C6.09271 15.2592 7.90323 16.0091 9.79107 16.0091C10.8191 16.0091 11.808 15.7839 12.699 15.3825C13.2571 16.4497 13.5117 16.9785 13.4921 16.9785C11.8864 17.517 10.6429 17.7813 9.79107 17.7813C7.42163 17.7813 5.15989 16.8512 3.49541 15.1769C2.48301 14.1676 1.73044 12.9279 1.30221 11.564H0V7.10906H1.06723C1.39057 5.53516 2.13396 4.07814 3.21851 2.89262C4.30306 1.7071 5.68833 0.837297 7.22731 0.375503C8.76629 -0.0862919 10.4016 -0.12285 11.9597 0.269708C13.5177 0.662266 14.9405 1.4693 16.0769 2.60517C17.3108 3.83419 18.1525 5.40159 18.4953 7.10906H19.5821V11.564H19.5234L16.0378 14.7657L10.8485 14.1782V12.5431H15.5776L16.3707 11.5934ZM7.11811 8.66584C7.41184 8.66584 7.69578 8.78333 7.90139 8.99873C8.10803 9.20706 8.22398 9.4886 8.22398 9.78202C8.22398 10.0754 8.10803 10.357 7.90139 10.5653C7.69578 10.7709 7.41184 10.8884 7.11811 10.8884C6.50127 10.8884 6.00193 10.3989 6.00193 9.78202C6.00193 9.16518 6.50127 8.66584 7.11811 8.66584ZM12.4542 8.66584C13.0711 8.66584 13.5606 9.16518 13.5606 9.78202C13.5606 10.3989 13.0711 10.8884 12.4542 10.8884C11.8374 10.8884 11.3381 10.3989 11.3381 9.78202C11.3381 9.48599 11.4557 9.20208 11.665 8.99276C11.8743 8.78343 12.1582 8.66584 12.4542 8.66584Z" fill="#CBCFD4"/>
</svg>
