<svg width="15" height="15" viewBox="0 0 15 15" fill="none" xmlns="http://www.w3.org/2000/svg">
<path d="M14.353 9.38765L13.2656 8.45796C13.3171 8.14253 13.3437 7.82046 13.3437 7.49839C13.3437 7.17632 13.3171 6.85425 13.2656 6.53882L14.353 5.60913C14.435 5.53892 14.4937 5.4454 14.5213 5.34101C14.5489 5.23663 14.5441 5.12632 14.5074 5.02476L14.4925 4.98159C14.1931 4.14492 13.7449 3.36931 13.1693 2.69224L13.1395 2.65737C13.0696 2.57528 12.9766 2.51627 12.8726 2.48812C12.7685 2.45996 12.6584 2.46399 12.5567 2.49966L11.207 2.97944C10.709 2.57105 10.1528 2.24898 9.55186 2.02319L9.29121 0.612061C9.27155 0.505881 9.22004 0.408197 9.14354 0.331989C9.06703 0.25578 8.96915 0.204653 8.86289 0.1854L8.81807 0.1771C7.95313 0.0210449 7.04336 0.0210449 6.17842 0.1771L6.1336 0.1854C6.02734 0.204653 5.92946 0.25578 5.85295 0.331989C5.77645 0.408197 5.72494 0.505881 5.70528 0.612061L5.44297 2.02983C4.84679 2.25566 4.2916 2.57756 3.79942 2.98276L2.43975 2.49966C2.33809 2.4637 2.2279 2.45953 2.12381 2.4877C2.01973 2.51588 1.92668 2.57505 1.85703 2.65737L1.82715 2.69224C1.25232 3.36979 0.804124 4.14527 0.504007 4.98159L0.489066 5.02476C0.414359 5.23228 0.475785 5.4647 0.64346 5.60913L1.74414 6.54878C1.69268 6.86089 1.66778 7.17964 1.66778 7.49673C1.66778 7.81548 1.69268 8.13423 1.74414 8.44468L0.64346 9.38433C0.561442 9.45454 0.50274 9.54806 0.47516 9.65245C0.447581 9.75683 0.452431 9.86714 0.489066 9.9687L0.504007 10.0119C0.804496 10.8486 1.24942 11.6206 1.82715 12.3012L1.85703 12.3361C1.92685 12.4182 2.0199 12.4772 2.12392 12.5053C2.22795 12.5335 2.33806 12.5295 2.43975 12.4938L3.79942 12.0107C4.29414 12.4174 4.84698 12.7395 5.44297 12.9636L5.70528 14.3814C5.72494 14.4876 5.77645 14.5853 5.85295 14.6615C5.92946 14.7377 6.02734 14.7888 6.1336 14.8081L6.17842 14.8164C7.05131 14.9733 7.94518 14.9733 8.81807 14.8164L8.86289 14.8081C8.96915 14.7888 9.06703 14.7377 9.14354 14.6615C9.22004 14.5853 9.27155 14.4876 9.29121 14.3814L9.55186 12.9703C10.1526 12.7451 10.7119 12.422 11.207 12.014L12.5567 12.4938C12.6584 12.5298 12.7686 12.5339 12.8727 12.5058C12.9768 12.4776 13.0698 12.4184 13.1395 12.3361L13.1693 12.3012C13.7471 11.6189 14.192 10.8486 14.4925 10.0119L14.5074 9.9687C14.5821 9.7645 14.5207 9.53208 14.353 9.38765ZM12.0869 6.73472C12.1284 6.9854 12.15 7.24273 12.15 7.50005C12.15 7.75737 12.1284 8.0147 12.0869 8.26538L11.9773 8.93111L13.2175 9.99195C13.0295 10.4251 12.7922 10.8351 12.5103 11.2138L10.9696 10.6676L10.4483 11.096C10.0516 11.4213 9.60996 11.677 9.13184 11.8563L8.49932 12.0937L8.20215 13.7041C7.73327 13.7572 7.2599 13.7572 6.79102 13.7041L6.49385 12.0904L5.86631 11.8497C5.39317 11.6704 4.95323 11.4147 4.55977 11.091L4.03848 10.661L2.48789 11.2122C2.20567 10.832 1.96993 10.4219 1.78067 9.99029L3.03409 8.91949L2.92618 8.25542C2.88633 8.00806 2.86475 7.75239 2.86475 7.50005C2.86475 7.24605 2.88467 6.99204 2.92618 6.74468L3.03409 6.08062L1.78067 5.00982C1.96826 4.57651 2.20567 4.16812 2.48789 3.78794L4.03848 4.33911L4.55977 3.90913C4.95323 3.5854 5.39317 3.32974 5.86631 3.15044L6.49551 2.91304L6.79268 1.29937C7.25918 1.24624 7.73565 1.24624 8.20381 1.29937L8.50098 2.90972L9.1335 3.14712C9.60996 3.32642 10.0532 3.58208 10.45 3.90747L10.9713 4.33579L12.5119 3.7896C12.7941 4.16978 13.0299 4.57983 13.2191 5.01148L11.979 6.07232L12.0869 6.73472ZM7.4999 4.41216C5.88623 4.41216 4.57803 5.72036 4.57803 7.33403C4.57803 8.94771 5.88623 10.2559 7.4999 10.2559C9.11358 10.2559 10.4218 8.94771 10.4218 7.33403C10.4218 5.72036 9.11358 4.41216 7.4999 4.41216ZM8.81475 8.64888C8.64229 8.82183 8.43735 8.95897 8.2117 9.05243C7.98604 9.14588 7.74414 9.19379 7.4999 9.19341C7.00352 9.19341 6.53701 8.99917 6.18506 8.64888C6.01211 8.47643 5.87497 8.27148 5.78152 8.04583C5.68806 7.82017 5.64015 7.57827 5.64053 7.33403C5.64053 6.83765 5.83477 6.37114 6.18506 6.01919C6.53701 5.66724 7.00352 5.47466 7.4999 5.47466C7.99629 5.47466 8.4628 5.66724 8.81475 6.01919C8.9877 6.19164 9.12484 6.39659 9.2183 6.62224C9.31175 6.8479 9.35966 7.0898 9.35928 7.33403C9.35928 7.83042 9.16504 8.29693 8.81475 8.64888Z" fill="#D8DBDF"/>
</svg>
