<svg width="28" height="16" viewBox="0 0 28 16" fill="none" xmlns="http://www.w3.org/2000/svg">
<path d="M14.1843 0L13.9094 0.0834246L2.93249 3.76114L0.436768 4.58397L1.89012 5.0494V12.7333C1.36586 13.038 1.01196 13.5939 1.01196 14.2437C1.01196 14.7095 1.197 15.1562 1.52637 15.4856C1.85574 15.815 2.30247 16 2.76827 16C3.23407 16 3.6808 15.815 4.01017 15.4856C4.33954 15.1562 4.52458 14.7095 4.52458 14.2437C4.52458 13.5939 4.17069 13.038 3.64643 12.7333V5.65532L5.40274 6.23052V10.7311C5.40274 11.4512 5.84182 12.0483 6.36344 12.461C6.88507 12.8711 7.53315 13.1609 8.31119 13.4209C9.86904 13.939 11.9222 14.2437 14.1843 14.2437C16.4464 14.2437 18.4996 13.9398 20.0574 13.42C20.8355 13.1609 21.4835 12.8711 22.0052 12.4602C22.5268 12.0483 22.9659 11.4512 22.9659 10.7311V6.23052L25.4361 5.40681L27.9318 4.58397L25.4352 3.76026L14.4583 0.0834246L14.1843 0ZM14.1843 1.83974L22.417 4.58397L14.1843 7.32821L5.95159 4.58397L14.1843 1.83974ZM7.15905 6.83469L13.9103 9.08452L14.1843 9.16707L14.4592 9.08364L21.2095 6.83381V10.7311C21.2095 10.7398 21.2131 10.8417 20.9347 11.0604C20.6572 11.2799 20.1593 11.5565 19.5077 11.7743C18.2063 12.2072 16.2875 12.4874 14.1843 12.4874C12.0811 12.4874 10.1623 12.2081 8.86004 11.7734C8.2102 11.5565 7.71141 11.279 7.43391 11.0604C7.15466 10.8408 7.15905 10.7398 7.15905 10.7311V6.83381V6.83469Z" fill="#D3D3D3"/>
</svg>
