<svg width="36" height="36" viewBox="0 0 36 36" fill="none" xmlns="http://www.w3.org/2000/svg">
<path d="M18.1259 0.00166092C8.07291 -0.13412 -0.13412 8.07291 0.00166092 18.1259C0.135723 27.7672 7.98611 35.6176 17.6274 35.7517C27.6821 35.8892 35.8874 27.6821 35.7499 17.6292C35.6176 7.98611 27.7672 0.135723 18.1259 0.00166092ZM28.9901 28.1247C28.9559 28.1617 28.9139 28.1908 28.8672 28.2098C28.8205 28.2287 28.7702 28.2372 28.7198 28.2346C28.6695 28.232 28.6203 28.2183 28.5758 28.1946C28.5314 28.1708 28.4926 28.1376 28.4624 28.0972C27.6938 27.0915 26.7524 26.2305 25.6824 25.5543C23.4944 24.1501 20.7221 23.3767 17.8767 23.3767C15.0313 23.3767 12.2589 24.1501 10.071 25.5543C9.00093 26.2302 8.05959 27.0909 7.29088 28.0963C7.26068 28.1367 7.22197 28.17 7.17749 28.1937C7.13301 28.2175 7.08385 28.2311 7.03349 28.2337C6.98314 28.2364 6.93283 28.2279 6.88612 28.2089C6.83941 28.1899 6.79746 28.1609 6.76322 28.1238C4.24154 25.4017 2.8131 21.8447 2.75166 18.1345C2.61158 9.7719 9.47369 2.77229 17.8397 2.75166C26.2057 2.73104 33.0017 9.5244 33.0017 17.8767C33.0045 21.6763 31.5717 25.3367 28.9901 28.1247Z" fill="#D3D3D3"/>
<path d="M17.8767 8.25146C16.182 8.25146 14.6498 8.88654 13.5609 10.0407C12.4721 11.1948 11.9281 12.7907 12.051 14.5034C12.3002 17.8765 14.9136 20.6265 17.8767 20.6265C20.8398 20.6265 23.448 17.8765 23.7024 14.5043C23.8296 12.8079 23.2899 11.2266 22.183 10.051C21.0899 8.89084 19.5602 8.25146 17.8767 8.25146Z" fill="#D3D3D3"/>
</svg>
