<svg width="18" height="18" viewBox="0 0 18 18" fill="none" xmlns="http://www.w3.org/2000/svg">
<path d="M0 15.75V16.875C0 17.1797 0.111328 17.4434 0.333984 17.666C0.556641 17.8887 0.820312 18 1.125 18H16.875C17.1797 18 17.4434 17.8887 17.666 17.666C17.8887 17.4434 18 17.1797 18 16.875V2.25C18 1.62891 17.7803 1.09863 17.3408 0.65918C16.9014 0.219727 16.3711 0 15.75 0H2.25C1.62891 0 1.09863 0.219727 0.65918 0.65918C0.219727 1.09863 0 1.62891 0 2.25V15.75ZM2.25 4.5C2.25 3.87891 2.46973 3.34863 2.90918 2.90918C3.34863 2.46973 3.87891 2.25 4.5 2.25H13.5C14.1211 2.25 14.6514 2.46973 15.0908 2.90918C15.5303 3.34863 15.75 3.87891 15.75 4.5V11.25C15.75 11.5664 15.6416 11.833 15.4248 12.0498C15.208 12.2666 14.9414 12.375 14.625 12.375H14.0625C13.8281 12.375 13.6055 12.4248 13.3945 12.5244C13.1836 12.624 13.0312 12.7617 12.9375 12.9375C12.8789 13.1367 12.7822 13.5234 12.6475 14.0977C12.5127 14.6719 12.4219 15.0352 12.375 15.1875C12.2812 15.4219 12.1436 15.5742 11.9619 15.6445C11.7803 15.7148 11.5137 15.75 11.1621 15.75H6.78516C6.44531 15.75 6.19043 15.7148 6.02051 15.6445C5.85059 15.5742 5.71875 15.4219 5.625 15.1875C5.41406 14.1328 5.22656 13.3828 5.0625 12.9375C4.91016 12.5625 4.53516 12.375 3.9375 12.375H3.375C3.07031 12.375 2.80664 12.2666 2.58398 12.0498C2.36133 11.833 2.25 11.5664 2.25 11.25V4.5ZM4.86914 9H6.75V11.25C6.75 11.5664 6.8584 11.833 7.0752 12.0498C7.29199 12.2666 7.55859 12.375 7.875 12.375H10.125C10.4414 12.375 10.708 12.2666 10.9248 12.0498C11.1416 11.833 11.25 11.5664 11.25 11.25V9H13.1484C13.3242 9 13.4355 8.96484 13.4824 8.89453C13.5293 8.82422 13.4824 8.71289 13.3418 8.56055L9.58008 4.74609C9.41602 4.58203 9.22266 4.5 9 4.5C8.77734 4.5 8.58984 4.58203 8.4375 4.74609L4.67578 8.56055C4.53516 8.71289 4.48828 8.82422 4.53516 8.89453C4.58203 8.96484 4.69336 9 4.86914 9Z" fill="#109cf1"/>
</svg>
