<svg width="47" height="46" viewBox="0 0 47 46" fill="none" xmlns="http://www.w3.org/2000/svg">
<path d="M1.39999 0.5H42.4C44.6091 0.5 46.4 2.29086 46.4 4.5V41.5C46.4 43.7091 44.6091 45.5 42.4 45.5H1.39999V0.5Z" fill="#F4F7F9" fill-opacity="0.4" stroke="#E9EFF4"/>
<path fill-rule="evenodd" clip-rule="evenodd" d="M20.5574 24.2542H21.4098V23.3926H20.5574V24.2542ZM19.7051 25.1155H22.2625V22.5313H19.7051V25.1155ZM20.5574 27.7005H21.4098V26.8386H20.5574V27.7005ZM19.7051 28.5618H22.2625V25.977H19.7051V28.5618ZM23.9672 24.2542H24.8197V23.3926H23.9672V24.2542ZM23.1148 25.1155H25.6721V22.5313H23.1148V25.1155ZM23.9672 27.7005H24.8197V26.8386H23.9672V27.7005ZM23.1148 28.5618H25.6721V25.977H23.1148V28.5618ZM27.377 24.2542H28.2295V23.3926H27.377V24.2542ZM26.5246 25.1155H29.082V22.5313H26.5246V25.1155ZM27.377 27.7005H28.2295V26.8386H27.377V27.7005ZM26.5246 28.5618H29.082V25.977H26.5246V28.5618ZM29.9344 20.8082H18.8525V28.9926C18.8525 29.2306 19.0434 29.4234 19.2789 29.4234H29.5082C29.7437 29.4234 29.9344 29.2306 29.9344 28.9926V20.8082ZM29.9344 18.6544C29.9344 18.4162 29.7437 18.2234 29.5082 18.2234H27.377V19.0854H26.5246V18.2234H22.2623V19.0854H21.4098V18.2234H19.2789C19.0434 18.2234 18.8525 18.4162 18.8525 18.6544V19.9467H29.9344V18.6544ZM29.9344 30.2849H18.8525C18.3817 30.2849 18 29.8994 18 29.4234V20.8082V19.9467V18.2234C18 17.7476 18.3817 17.3618 18.8525 17.3618H21.4098V16.5001H22.2623V17.3618H26.5246V16.5001H27.377V17.3618H30.3607C30.8314 17.3618 30.7869 17.7476 30.7869 18.2234V19.9467V20.8082V29.4234C30.7869 29.8994 30.4052 30.2849 29.9344 30.2849Z" fill="#4DA1FF"/>
</svg>
