<svg width="207" height="250" viewBox="0 0 207 250" fill="none" xmlns="http://www.w3.org/2000/svg">
<path d="M7.418 91C7.418 90.67 7.44367 90.373 7.495 90.109C7.54633 89.8377 7.63433 89.5883 7.759 89.361C7.891 89.1337 8.067 88.921 8.287 88.723C8.51433 88.525 8.80033 88.3307 9.145 88.14C9.44567 87.9787 9.70967 87.8393 9.937 87.722C10.1717 87.5973 10.366 87.4837 10.52 87.381C10.674 87.2783 10.7913 87.1757 10.872 87.073C10.9527 86.963 10.993 86.8383 10.993 86.699C10.993 86.479 10.905 86.292 10.729 86.138C10.553 85.9767 10.3 85.896 9.97 85.896C9.794 85.896 9.63267 85.9217 9.486 85.973C9.33933 86.017 9.2 86.0793 9.068 86.16C8.94333 86.2407 8.826 86.3323 8.716 86.435C8.61333 86.5303 8.518 86.633 8.43 86.743L7.484 85.654C7.57933 85.5513 7.715 85.4413 7.891 85.324C8.067 85.1993 8.27233 85.0857 8.507 84.983C8.749 84.873 9.013 84.785 9.299 84.719C9.59233 84.6457 9.904 84.609 10.234 84.609C10.608 84.609 10.9417 84.6567 11.235 84.752C11.5283 84.84 11.774 84.9683 11.972 85.137C12.1773 85.2983 12.3313 85.4963 12.434 85.731C12.544 85.9583 12.599 86.2077 12.599 86.479C12.599 86.7357 12.5513 86.963 12.456 87.161C12.3607 87.359 12.2397 87.535 12.093 87.689C11.9463 87.843 11.785 87.9787 11.609 88.096C11.4403 88.206 11.2753 88.305 11.114 88.393C10.982 88.4663 10.8317 88.5507 10.663 88.646C10.4943 88.7413 10.3257 88.8477 10.157 88.965C9.99567 89.075 9.84533 89.1923 9.706 89.317C9.56667 89.4343 9.46033 89.5517 9.387 89.669H12.72V91H7.418ZM17.3157 87.491C17.6823 87.491 18.0233 87.5533 18.3387 87.678C18.654 87.7953 18.9253 87.964 19.1527 88.184C19.38 88.404 19.556 88.668 19.6807 88.976C19.8127 89.284 19.8787 89.625 19.8787 89.999C19.8787 90.395 19.8053 90.7543 19.6587 91.077C19.5193 91.3997 19.3213 91.6747 19.0647 91.902C18.808 92.1367 18.5037 92.3163 18.1517 92.441C17.7997 92.573 17.4183 92.639 17.0077 92.639C16.4357 92.639 15.9223 92.518 15.4677 92.276C15.0203 92.034 14.6793 91.704 14.4447 91.286L15.2917 90.406C15.497 90.692 15.7537 90.9193 16.0617 91.088C16.3697 91.2567 16.6887 91.341 17.0187 91.341C17.4147 91.341 17.7373 91.2237 17.9867 90.989C18.2433 90.747 18.3717 90.428 18.3717 90.032C18.3717 89.6507 18.2507 89.3427 18.0087 89.108C17.774 88.8733 17.4733 88.756 17.1067 88.756C16.8647 88.756 16.6373 88.811 16.4247 88.921C16.2193 89.031 16.0543 89.1813 15.9297 89.372H14.6427C14.6427 89.35 14.6573 89.2693 14.6867 89.13C14.716 88.9833 14.7527 88.8 14.7967 88.58C14.8407 88.3527 14.8883 88.1033 14.9397 87.832C14.991 87.5533 15.046 87.271 15.1047 86.985C15.2367 86.3103 15.3833 85.555 15.5447 84.719H19.3947V86.061H16.6117L16.2927 87.81C16.3807 87.7147 16.509 87.6377 16.6777 87.579C16.8537 87.5203 17.0663 87.491 17.3157 87.491Z" fill="#E6E6E6"/>
<path d="M40.418 91C40.418 90.67 40.4437 90.373 40.495 90.109C40.5463 89.8377 40.6343 89.5883 40.759 89.361C40.891 89.1337 41.067 88.921 41.287 88.723C41.5143 88.525 41.8003 88.3307 42.145 88.14C42.4457 87.9787 42.7097 87.8393 42.937 87.722C43.1717 87.5973 43.366 87.4837 43.52 87.381C43.674 87.2783 43.7913 87.1757 43.872 87.073C43.9527 86.963 43.993 86.8383 43.993 86.699C43.993 86.479 43.905 86.292 43.729 86.138C43.553 85.9767 43.3 85.896 42.97 85.896C42.794 85.896 42.6327 85.9217 42.486 85.973C42.3393 86.017 42.2 86.0793 42.068 86.16C41.9433 86.2407 41.826 86.3323 41.716 86.435C41.6133 86.5303 41.518 86.633 41.43 86.743L40.484 85.654C40.5793 85.5513 40.715 85.4413 40.891 85.324C41.067 85.1993 41.2723 85.0857 41.507 84.983C41.749 84.873 42.013 84.785 42.299 84.719C42.5923 84.6457 42.904 84.609 43.234 84.609C43.608 84.609 43.9417 84.6567 44.235 84.752C44.5283 84.84 44.774 84.9683 44.972 85.137C45.1773 85.2983 45.3313 85.4963 45.434 85.731C45.544 85.9583 45.599 86.2077 45.599 86.479C45.599 86.7357 45.5513 86.963 45.456 87.161C45.3607 87.359 45.2397 87.535 45.093 87.689C44.9463 87.843 44.785 87.9787 44.609 88.096C44.4403 88.206 44.2753 88.305 44.114 88.393C43.982 88.4663 43.8317 88.5507 43.663 88.646C43.4943 88.7413 43.3257 88.8477 43.157 88.965C42.9957 89.075 42.8453 89.1923 42.706 89.317C42.5667 89.4343 42.4603 89.5517 42.387 89.669H45.72V91H40.418ZM53.3627 88.393C53.3627 88.7743 53.2893 89.13 53.1427 89.46C52.996 89.79 52.7943 90.0797 52.5377 90.329C52.281 90.571 51.9767 90.7617 51.6247 90.901C51.28 91.0403 50.906 91.11 50.5027 91.11C50.0627 91.11 49.663 91.0293 49.3037 90.868C48.9517 90.7067 48.651 90.472 48.4017 90.164C48.1523 89.856 47.9617 89.482 47.8297 89.042C47.6977 88.5947 47.6317 88.0887 47.6317 87.524C47.6317 86.8127 47.7013 86.1857 47.8407 85.643C47.98 85.093 48.1817 84.6347 48.4457 84.268C48.7097 83.894 49.0287 83.6117 49.4027 83.421C49.7767 83.2303 50.1947 83.135 50.6567 83.135C51.148 83.135 51.599 83.2413 52.0097 83.454C52.4277 83.6667 52.7797 83.971 53.0657 84.367L52.2187 85.291C52.0427 85.0123 51.8153 84.796 51.5367 84.642C51.258 84.488 50.9573 84.411 50.6347 84.411C50.1433 84.411 49.751 84.6053 49.4577 84.994C49.1643 85.3827 49.0103 85.9327 48.9957 86.644C49.1497 86.38 49.366 86.171 49.6447 86.017C49.9307 85.863 50.2607 85.786 50.6347 85.786C51.016 85.786 51.3717 85.852 51.7017 85.984C52.039 86.116 52.3287 86.2993 52.5707 86.534C52.82 86.7687 53.0143 87.0473 53.1537 87.37C53.293 87.6853 53.3627 88.0263 53.3627 88.393ZM50.5137 89.867C50.7043 89.867 50.8877 89.8303 51.0637 89.757C51.2397 89.6763 51.3937 89.57 51.5257 89.438C51.6577 89.2987 51.7603 89.141 51.8337 88.965C51.9143 88.7817 51.9547 88.591 51.9547 88.393C51.9547 88.195 51.9143 88.0117 51.8337 87.843C51.7603 87.667 51.6577 87.513 51.5257 87.381C51.3937 87.249 51.2397 87.1463 51.0637 87.073C50.895 86.9997 50.7117 86.963 50.5137 86.963C50.3157 86.963 50.1287 86.9997 49.9527 87.073C49.7767 87.1463 49.6227 87.249 49.4907 87.381C49.3587 87.513 49.256 87.667 49.1827 87.843C49.1093 88.0117 49.0727 88.195 49.0727 88.393C49.0727 88.591 49.1093 88.7817 49.1827 88.965C49.2633 89.141 49.3697 89.295 49.5017 89.427C49.6337 89.559 49.784 89.6653 49.9527 89.746C50.1287 89.8267 50.3157 89.867 50.5137 89.867Z" fill="#E6E6E6"/>
<path d="M71.418 91C71.418 90.67 71.4437 90.373 71.495 90.109C71.5463 89.8377 71.6343 89.5883 71.759 89.361C71.891 89.1337 72.067 88.921 72.287 88.723C72.5143 88.525 72.8003 88.3307 73.145 88.14C73.4457 87.9787 73.7097 87.8393 73.937 87.722C74.1717 87.5973 74.366 87.4837 74.52 87.381C74.674 87.2783 74.7913 87.1757 74.872 87.073C74.9527 86.963 74.993 86.8383 74.993 86.699C74.993 86.479 74.905 86.292 74.729 86.138C74.553 85.9767 74.3 85.896 73.97 85.896C73.794 85.896 73.6327 85.9217 73.486 85.973C73.3393 86.017 73.2 86.0793 73.068 86.16C72.9433 86.2407 72.826 86.3323 72.716 86.435C72.6133 86.5303 72.518 86.633 72.43 86.743L71.484 85.654C71.5793 85.5513 71.715 85.4413 71.891 85.324C72.067 85.1993 72.2723 85.0857 72.507 84.983C72.749 84.873 73.013 84.785 73.299 84.719C73.5923 84.6457 73.904 84.609 74.234 84.609C74.608 84.609 74.9417 84.6567 75.235 84.752C75.5283 84.84 75.774 84.9683 75.972 85.137C76.1773 85.2983 76.3313 85.4963 76.434 85.731C76.544 85.9583 76.599 86.2077 76.599 86.479C76.599 86.7357 76.5513 86.963 76.456 87.161C76.3607 87.359 76.2397 87.535 76.093 87.689C75.9463 87.843 75.785 87.9787 75.609 88.096C75.4403 88.206 75.2753 88.305 75.114 88.393C74.982 88.4663 74.8317 88.5507 74.663 88.646C74.4943 88.7413 74.3257 88.8477 74.157 88.965C73.9957 89.075 73.8453 89.1923 73.706 89.317C73.5667 89.4343 73.4603 89.5517 73.387 89.669H76.72V91H71.418ZM81.9867 85.929H78.4337V84.587H84.3077L80.4357 92.397H78.7637L81.9867 85.929Z" fill="#E6E6E6"/>
<path d="M99.418 91C99.418 90.67 99.4437 90.373 99.495 90.109C99.5463 89.8377 99.6343 89.5883 99.759 89.361C99.891 89.1337 100.067 88.921 100.287 88.723C100.514 88.525 100.8 88.3307 101.145 88.14C101.446 87.9787 101.71 87.8393 101.937 87.722C102.172 87.5973 102.366 87.4837 102.52 87.381C102.674 87.2783 102.791 87.1757 102.872 87.073C102.953 86.963 102.993 86.8383 102.993 86.699C102.993 86.479 102.905 86.292 102.729 86.138C102.553 85.9767 102.3 85.896 101.97 85.896C101.794 85.896 101.633 85.9217 101.486 85.973C101.339 86.017 101.2 86.0793 101.068 86.16C100.943 86.2407 100.826 86.3323 100.716 86.435C100.613 86.5303 100.518 86.633 100.43 86.743L99.484 85.654C99.5793 85.5513 99.715 85.4413 99.891 85.324C100.067 85.1993 100.272 85.0857 100.507 84.983C100.749 84.873 101.013 84.785 101.299 84.719C101.592 84.6457 101.904 84.609 102.234 84.609C102.608 84.609 102.942 84.6567 103.235 84.752C103.528 84.84 103.774 84.9683 103.972 85.137C104.177 85.2983 104.331 85.4963 104.434 85.731C104.544 85.9583 104.599 86.2077 104.599 86.479C104.599 86.7357 104.551 86.963 104.456 87.161C104.361 87.359 104.24 87.535 104.093 87.689C103.946 87.843 103.785 87.9787 103.609 88.096C103.44 88.206 103.275 88.305 103.114 88.393C102.982 88.4663 102.832 88.5507 102.663 88.646C102.494 88.7413 102.326 88.8477 102.157 88.965C101.996 89.075 101.845 89.1923 101.706 89.317C101.567 89.4343 101.46 89.5517 101.387 89.669H104.72V91H99.418ZM112.286 88.69C112.286 89.0567 112.209 89.3867 112.055 89.68C111.908 89.9733 111.703 90.2263 111.439 90.439C111.182 90.6517 110.881 90.8167 110.537 90.934C110.192 91.044 109.825 91.099 109.437 91.099C109.048 91.099 108.681 91.0403 108.337 90.923C107.992 90.7983 107.691 90.626 107.435 90.406C107.178 90.186 106.976 89.9257 106.83 89.625C106.683 89.3243 106.61 88.9943 106.61 88.635C106.61 88.415 106.646 88.2133 106.72 88.03C106.793 87.8393 106.888 87.667 107.006 87.513C107.123 87.359 107.251 87.2233 107.391 87.106C107.537 86.9887 107.684 86.8933 107.831 86.82C107.559 86.688 107.328 86.49 107.138 86.226C106.947 85.962 106.852 85.6723 106.852 85.357C106.852 85.005 106.929 84.697 107.083 84.433C107.244 84.1617 107.449 83.9343 107.699 83.751C107.955 83.5677 108.234 83.4283 108.535 83.333C108.843 83.2377 109.147 83.19 109.448 83.19C109.741 83.19 110.042 83.2377 110.35 83.333C110.665 83.421 110.947 83.5567 111.197 83.74C111.446 83.9233 111.651 84.1507 111.813 84.422C111.974 84.686 112.055 84.994 112.055 85.346C112.055 85.5 112.029 85.654 111.978 85.808C111.926 85.9547 111.853 86.094 111.758 86.226C111.67 86.3507 111.563 86.4643 111.439 86.567C111.314 86.6697 111.182 86.754 111.043 86.82C111.204 86.9007 111.358 87.0033 111.505 87.128C111.651 87.2453 111.783 87.3847 111.901 87.546C112.018 87.7 112.11 87.8723 112.176 88.063C112.249 88.2537 112.286 88.4627 112.286 88.69ZM110.79 88.602C110.79 88.4187 110.749 88.2537 110.669 88.107C110.595 87.9603 110.493 87.8393 110.361 87.744C110.236 87.6413 110.093 87.5643 109.932 87.513C109.77 87.4617 109.605 87.436 109.437 87.436C109.261 87.436 109.092 87.4653 108.931 87.524C108.769 87.5753 108.626 87.6523 108.502 87.755C108.384 87.8577 108.289 87.9823 108.216 88.129C108.142 88.2683 108.106 88.426 108.106 88.602C108.106 88.778 108.142 88.9393 108.216 89.086C108.296 89.2253 108.399 89.3463 108.524 89.449C108.648 89.5517 108.791 89.6323 108.953 89.691C109.114 89.7423 109.279 89.768 109.448 89.768C109.624 89.768 109.792 89.7387 109.954 89.68C110.115 89.6213 110.258 89.5407 110.383 89.438C110.507 89.3353 110.606 89.2143 110.68 89.075C110.753 88.9283 110.79 88.7707 110.79 88.602ZM108.348 85.401C108.348 85.555 108.381 85.6907 108.447 85.808C108.513 85.918 108.597 86.0133 108.7 86.094C108.81 86.1673 108.927 86.226 109.052 86.27C109.184 86.3067 109.316 86.325 109.448 86.325C109.572 86.325 109.701 86.3067 109.833 86.27C109.965 86.226 110.082 86.1637 110.185 86.083C110.295 86.0023 110.383 85.907 110.449 85.797C110.515 85.6797 110.548 85.544 110.548 85.39C110.548 85.1187 110.438 84.9023 110.218 84.741C110.005 84.5797 109.745 84.499 109.437 84.499C109.136 84.499 108.879 84.5833 108.667 84.752C108.454 84.9133 108.348 85.1297 108.348 85.401Z" fill="#E6E6E6"/>
<path d="M143.17 89.669V91H138.704V89.669H140.266V86.336C140.2 86.424 140.094 86.5157 139.947 86.611C139.808 86.699 139.654 86.7833 139.485 86.864C139.316 86.9447 139.14 87.0107 138.957 87.062C138.781 87.1133 138.623 87.139 138.484 87.139V85.764C138.616 85.764 138.777 85.7237 138.968 85.643C139.159 85.555 139.346 85.4523 139.529 85.335C139.712 85.2177 139.87 85.104 140.002 84.994C140.141 84.8767 140.229 84.785 140.266 84.719H141.773V89.669H143.17Z" fill="#E6E6E6"/>
<path d="M168.418 91C168.418 90.67 168.444 90.373 168.495 90.109C168.546 89.8377 168.634 89.5883 168.759 89.361C168.891 89.1337 169.067 88.921 169.287 88.723C169.514 88.525 169.8 88.3307 170.145 88.14C170.446 87.9787 170.71 87.8393 170.937 87.722C171.172 87.5973 171.366 87.4837 171.52 87.381C171.674 87.2783 171.791 87.1757 171.872 87.073C171.953 86.963 171.993 86.8383 171.993 86.699C171.993 86.479 171.905 86.292 171.729 86.138C171.553 85.9767 171.3 85.896 170.97 85.896C170.794 85.896 170.633 85.9217 170.486 85.973C170.339 86.017 170.2 86.0793 170.068 86.16C169.943 86.2407 169.826 86.3323 169.716 86.435C169.613 86.5303 169.518 86.633 169.43 86.743L168.484 85.654C168.579 85.5513 168.715 85.4413 168.891 85.324C169.067 85.1993 169.272 85.0857 169.507 84.983C169.749 84.873 170.013 84.785 170.299 84.719C170.592 84.6457 170.904 84.609 171.234 84.609C171.608 84.609 171.942 84.6567 172.235 84.752C172.528 84.84 172.774 84.9683 172.972 85.137C173.177 85.2983 173.331 85.4963 173.434 85.731C173.544 85.9583 173.599 86.2077 173.599 86.479C173.599 86.7357 173.551 86.963 173.456 87.161C173.361 87.359 173.24 87.535 173.093 87.689C172.946 87.843 172.785 87.9787 172.609 88.096C172.44 88.206 172.275 88.305 172.114 88.393C171.982 88.4663 171.832 88.5507 171.663 88.646C171.494 88.7413 171.326 88.8477 171.157 88.965C170.996 89.075 170.845 89.1923 170.706 89.317C170.567 89.4343 170.46 89.5517 170.387 89.669H173.72V91H168.418Z" fill="#999999"/>
<path d="M200.191 88.404C200.646 88.4847 201.012 88.7047 201.291 89.064C201.577 89.416 201.72 89.8487 201.72 90.362C201.72 90.7067 201.65 91.0183 201.511 91.297C201.379 91.5757 201.188 91.8103 200.939 92.001C200.697 92.199 200.4 92.3493 200.048 92.452C199.696 92.562 199.3 92.617 198.86 92.617C198.303 92.617 197.808 92.5253 197.375 92.342C196.95 92.166 196.594 91.9057 196.308 91.561L197.144 90.516C197.335 90.758 197.562 90.945 197.826 91.077C198.09 91.209 198.42 91.275 198.816 91.275C199.263 91.275 199.604 91.187 199.839 91.011C200.074 90.835 200.191 90.5637 200.191 90.197C200.191 89.8157 200.055 89.5223 199.784 89.317C199.513 89.1117 199.102 89.009 198.552 89.009H198.244V87.909H198.585C199.04 87.909 199.392 87.81 199.641 87.612C199.89 87.4067 200.015 87.1463 200.015 86.831C200.015 86.5303 199.912 86.3067 199.707 86.16C199.502 86.0133 199.234 85.94 198.904 85.94C198.567 85.94 198.262 86.017 197.991 86.171C197.727 86.325 197.511 86.5413 197.342 86.82L196.418 85.786C196.528 85.6173 196.675 85.467 196.858 85.335C197.041 85.1957 197.247 85.0783 197.474 84.983C197.709 84.8803 197.962 84.8033 198.233 84.752C198.504 84.6933 198.783 84.664 199.069 84.664C199.443 84.664 199.784 84.7117 200.092 84.807C200.4 84.9023 200.664 85.0343 200.884 85.203C201.111 85.3717 201.284 85.577 201.401 85.819C201.526 86.0537 201.588 86.3177 201.588 86.611C201.588 86.831 201.555 87.04 201.489 87.238C201.423 87.436 201.328 87.6157 201.203 87.777C201.078 87.9383 200.928 88.074 200.752 88.184C200.583 88.294 200.396 88.3673 200.191 88.404Z" fill="#999999"/>
<path d="M14.432 131.397V129.758H11.22V128.449L14.905 123.719H15.906V128.438H16.874V129.758H15.906V131.397H14.432ZM12.694 128.438H14.597V125.952L12.694 128.438Z" fill="#999999"/>
<path d="M47.19 126.491C47.5567 126.491 47.8977 126.553 48.213 126.678C48.5283 126.795 48.7997 126.964 49.027 127.184C49.2543 127.404 49.4303 127.668 49.555 127.976C49.687 128.284 49.753 128.625 49.753 128.999C49.753 129.395 49.6797 129.754 49.533 130.077C49.3937 130.4 49.1957 130.675 48.939 130.902C48.6823 131.137 48.378 131.316 48.026 131.441C47.674 131.573 47.2927 131.639 46.882 131.639C46.31 131.639 45.7967 131.518 45.342 131.276C44.8947 131.034 44.5537 130.704 44.319 130.286L45.166 129.406C45.3713 129.692 45.628 129.919 45.936 130.088C46.244 130.257 46.563 130.341 46.893 130.341C47.289 130.341 47.6117 130.224 47.861 129.989C48.1177 129.747 48.246 129.428 48.246 129.032C48.246 128.651 48.125 128.343 47.883 128.108C47.6483 127.873 47.3477 127.756 46.981 127.756C46.739 127.756 46.5117 127.811 46.299 127.921C46.0937 128.031 45.9287 128.181 45.804 128.372H44.517C44.517 128.35 44.5317 128.269 44.561 128.13C44.5903 127.983 44.627 127.8 44.671 127.58C44.715 127.353 44.7627 127.103 44.814 126.832C44.8653 126.553 44.9203 126.271 44.979 125.985C45.111 125.31 45.2577 124.555 45.419 123.719H49.269V125.061H46.486L46.167 126.81C46.255 126.715 46.3833 126.638 46.552 126.579C46.728 126.52 46.9407 126.491 47.19 126.491Z" fill="#999999"/>
<path d="M81.237 127.393C81.237 127.774 81.1637 128.13 81.017 128.46C80.8703 128.79 80.6687 129.08 80.412 129.329C80.1553 129.571 79.851 129.762 79.499 129.901C79.1543 130.04 78.7803 130.11 78.377 130.11C77.937 130.11 77.5373 130.029 77.178 129.868C76.826 129.707 76.5253 129.472 76.276 129.164C76.0267 128.856 75.836 128.482 75.704 128.042C75.572 127.595 75.506 127.089 75.506 126.524C75.506 125.813 75.5757 125.186 75.715 124.643C75.8543 124.093 76.056 123.635 76.32 123.268C76.584 122.894 76.903 122.612 77.277 122.421C77.651 122.23 78.069 122.135 78.531 122.135C79.0223 122.135 79.4733 122.241 79.884 122.454C80.302 122.667 80.654 122.971 80.94 123.367L80.093 124.291C79.917 124.012 79.6897 123.796 79.411 123.642C79.1323 123.488 78.8317 123.411 78.509 123.411C78.0177 123.411 77.6253 123.605 77.332 123.994C77.0387 124.383 76.8847 124.933 76.87 125.644C77.024 125.38 77.2403 125.171 77.519 125.017C77.805 124.863 78.135 124.786 78.509 124.786C78.8903 124.786 79.246 124.852 79.576 124.984C79.9133 125.116 80.203 125.299 80.445 125.534C80.6943 125.769 80.8887 126.047 81.028 126.37C81.1673 126.685 81.237 127.026 81.237 127.393ZM78.388 128.867C78.5787 128.867 78.762 128.83 78.938 128.757C79.114 128.676 79.268 128.57 79.4 128.438C79.532 128.299 79.6347 128.141 79.708 127.965C79.7887 127.782 79.829 127.591 79.829 127.393C79.829 127.195 79.7887 127.012 79.708 126.843C79.6347 126.667 79.532 126.513 79.4 126.381C79.268 126.249 79.114 126.146 78.938 126.073C78.7693 126 78.586 125.963 78.388 125.963C78.19 125.963 78.003 126 77.827 126.073C77.651 126.146 77.497 126.249 77.365 126.381C77.233 126.513 77.1303 126.667 77.057 126.843C76.9837 127.012 76.947 127.195 76.947 127.393C76.947 127.591 76.9837 127.782 77.057 127.965C77.1377 128.141 77.244 128.295 77.376 128.427C77.508 128.559 77.6583 128.665 77.827 128.746C78.003 128.827 78.19 128.867 78.388 128.867Z" fill="#999999"/>
<path d="M106.861 124.929H103.308V123.587H109.182L105.31 131.397H103.638L106.861 124.929Z" fill="#999999"/>
<rect x="157" y="73" width="28" height="28" rx="4" fill="#4DA1FF" fill-opacity="0.1"/>
<rect x="174" y="78" width="5" height="5" rx="2.5" fill="#4DA1FF"/>
<rect x="177" y="195" width="5" height="5" rx="2.5" fill="#4DA1FF"/>
<rect x="32" y="151" width="28" height="28" rx="4" fill="#F5F5F5"/>
<rect x="51" y="157" width="5" height="5" rx="2.5" fill="#FF6D4A"/>
<path d="M144.16 127.69C144.16 128.057 144.083 128.387 143.929 128.68C143.782 128.973 143.577 129.226 143.313 129.439C143.056 129.652 142.756 129.817 142.411 129.934C142.066 130.044 141.7 130.099 141.311 130.099C140.922 130.099 140.556 130.04 140.211 129.923C139.866 129.798 139.566 129.626 139.309 129.406C139.052 129.186 138.851 128.926 138.704 128.625C138.557 128.324 138.484 127.994 138.484 127.635C138.484 127.415 138.521 127.213 138.594 127.03C138.667 126.839 138.763 126.667 138.88 126.513C138.997 126.359 139.126 126.223 139.265 126.106C139.412 125.989 139.558 125.893 139.705 125.82C139.434 125.688 139.203 125.49 139.012 125.226C138.821 124.962 138.726 124.672 138.726 124.357C138.726 124.005 138.803 123.697 138.957 123.433C139.118 123.162 139.324 122.934 139.573 122.751C139.83 122.568 140.108 122.428 140.409 122.333C140.717 122.238 141.021 122.19 141.322 122.19C141.615 122.19 141.916 122.238 142.224 122.333C142.539 122.421 142.822 122.557 143.071 122.74C143.32 122.923 143.526 123.151 143.687 123.422C143.848 123.686 143.929 123.994 143.929 124.346C143.929 124.5 143.903 124.654 143.852 124.808C143.801 124.955 143.727 125.094 143.632 125.226C143.544 125.351 143.438 125.464 143.313 125.567C143.188 125.67 143.056 125.754 142.917 125.82C143.078 125.901 143.232 126.003 143.379 126.128C143.526 126.245 143.658 126.385 143.775 126.546C143.892 126.7 143.984 126.872 144.05 127.063C144.123 127.254 144.16 127.463 144.16 127.69ZM142.664 127.602C142.664 127.419 142.624 127.254 142.543 127.107C142.47 126.96 142.367 126.839 142.235 126.744C142.11 126.641 141.967 126.564 141.806 126.513C141.645 126.462 141.48 126.436 141.311 126.436C141.135 126.436 140.966 126.465 140.805 126.524C140.644 126.575 140.501 126.652 140.376 126.755C140.259 126.858 140.163 126.982 140.09 127.129C140.017 127.268 139.98 127.426 139.98 127.602C139.98 127.778 140.017 127.939 140.09 128.086C140.171 128.225 140.273 128.346 140.398 128.449C140.523 128.552 140.666 128.632 140.827 128.691C140.988 128.742 141.153 128.768 141.322 128.768C141.498 128.768 141.667 128.739 141.828 128.68C141.989 128.621 142.132 128.541 142.257 128.438C142.382 128.335 142.481 128.214 142.554 128.075C142.627 127.928 142.664 127.771 142.664 127.602ZM140.222 124.401C140.222 124.555 140.255 124.691 140.321 124.808C140.387 124.918 140.471 125.013 140.574 125.094C140.684 125.167 140.801 125.226 140.926 125.27C141.058 125.307 141.19 125.325 141.322 125.325C141.447 125.325 141.575 125.307 141.707 125.27C141.839 125.226 141.956 125.164 142.059 125.083C142.169 125.002 142.257 124.907 142.323 124.797C142.389 124.68 142.422 124.544 142.422 124.39C142.422 124.119 142.312 123.902 142.092 123.741C141.879 123.58 141.619 123.499 141.311 123.499C141.01 123.499 140.754 123.583 140.541 123.752C140.328 123.913 140.222 124.13 140.222 124.401Z" fill="#999999"/>
<path d="M168.352 126.436C168.352 126.055 168.425 125.699 168.572 125.369C168.719 125.039 168.917 124.753 169.166 124.511C169.423 124.262 169.723 124.067 170.068 123.928C170.42 123.789 170.798 123.719 171.201 123.719C171.641 123.719 172.037 123.8 172.389 123.961C172.748 124.122 173.053 124.357 173.302 124.665C173.551 124.973 173.742 125.351 173.874 125.798C174.013 126.238 174.083 126.74 174.083 127.305C174.083 128.016 174.01 128.647 173.863 129.197C173.724 129.74 173.522 130.194 173.258 130.561C173.001 130.935 172.686 131.217 172.312 131.408C171.938 131.599 171.52 131.694 171.058 131.694C170.567 131.694 170.112 131.588 169.694 131.375C169.276 131.162 168.924 130.858 168.638 130.462L169.485 129.538C169.661 129.817 169.888 130.033 170.167 130.187C170.446 130.341 170.75 130.418 171.08 130.418C171.571 130.418 171.96 130.224 172.246 129.835C172.539 129.446 172.693 128.896 172.708 128.185C172.561 128.449 172.345 128.658 172.059 128.812C171.773 128.966 171.443 129.043 171.069 129.043C170.68 129.043 170.321 128.977 169.991 128.845C169.661 128.713 169.375 128.53 169.133 128.295C168.891 128.06 168.7 127.785 168.561 127.47C168.422 127.147 168.352 126.803 168.352 126.436ZM171.201 124.962C171.003 124.962 170.816 125.002 170.64 125.083C170.471 125.156 170.321 125.263 170.189 125.402C170.057 125.534 169.951 125.692 169.87 125.875C169.797 126.051 169.76 126.238 169.76 126.436C169.76 126.634 169.797 126.821 169.87 126.997C169.951 127.166 170.053 127.316 170.178 127.448C170.31 127.58 170.464 127.683 170.64 127.756C170.816 127.829 171.003 127.866 171.201 127.866C171.399 127.866 171.586 127.829 171.762 127.756C171.938 127.683 172.088 127.58 172.213 127.448C172.345 127.316 172.448 127.166 172.521 126.997C172.602 126.821 172.642 126.634 172.642 126.436C172.642 126.238 172.602 126.051 172.521 125.875C172.448 125.692 172.345 125.534 172.213 125.402C172.081 125.27 171.927 125.164 171.751 125.083C171.582 125.002 171.399 124.962 171.201 124.962Z" fill="#999999"/>
<path d="M197.17 128.669V130H192.704V128.669H194.266V125.336C194.2 125.424 194.094 125.516 193.947 125.611C193.808 125.699 193.654 125.783 193.485 125.864C193.316 125.945 193.14 126.011 192.957 126.062C192.781 126.113 192.623 126.139 192.484 126.139V124.764C192.616 124.764 192.777 124.724 192.968 124.643C193.159 124.555 193.346 124.452 193.529 124.335C193.712 124.218 193.87 124.104 194.002 123.994C194.141 123.877 194.229 123.785 194.266 123.719H195.773V128.669H197.17ZM204.567 126.777C204.567 127.261 204.494 127.708 204.347 128.119C204.208 128.522 204.01 128.874 203.753 129.175C203.504 129.468 203.203 129.699 202.851 129.868C202.507 130.029 202.133 130.11 201.729 130.11C201.319 130.11 200.941 130.029 200.596 129.868C200.252 129.699 199.951 129.468 199.694 129.175C199.445 128.874 199.247 128.522 199.1 128.119C198.961 127.708 198.891 127.261 198.891 126.777C198.891 126.293 198.961 125.849 199.1 125.446C199.247 125.035 199.445 124.683 199.694 124.39C199.951 124.089 200.252 123.855 200.596 123.686C200.941 123.517 201.319 123.433 201.729 123.433C202.133 123.433 202.507 123.517 202.851 123.686C203.203 123.855 203.504 124.089 203.753 124.39C204.01 124.683 204.208 125.035 204.347 125.446C204.494 125.849 204.567 126.293 204.567 126.777ZM203.082 126.777C203.082 126.484 203.049 126.216 202.983 125.974C202.917 125.725 202.822 125.512 202.697 125.336C202.58 125.16 202.437 125.024 202.268 124.929C202.107 124.834 201.927 124.786 201.729 124.786C201.524 124.786 201.337 124.834 201.168 124.929C201.007 125.024 200.864 125.16 200.739 125.336C200.622 125.512 200.53 125.725 200.464 125.974C200.398 126.216 200.365 126.484 200.365 126.777C200.365 127.07 200.398 127.338 200.464 127.58C200.53 127.822 200.622 128.031 200.739 128.207C200.864 128.383 201.007 128.519 201.168 128.614C201.337 128.709 201.524 128.757 201.729 128.757C201.927 128.757 202.107 128.709 202.268 128.614C202.437 128.519 202.58 128.383 202.697 128.207C202.822 128.031 202.917 127.822 202.983 127.58C203.049 127.338 203.082 127.07 203.082 126.777Z" fill="#999999"/>
<g clip-path="url(#clip0)">
<path d="M12.17 167.669V169H7.704V167.669H9.266V164.336C9.2 164.424 9.09367 164.516 8.947 164.611C8.80767 164.699 8.65367 164.783 8.485 164.864C8.31633 164.945 8.14033 165.011 7.957 165.062C7.781 165.113 7.62333 165.139 7.484 165.139V163.764C7.616 163.764 7.77733 163.724 7.968 163.643C8.15867 163.555 8.34567 163.452 8.529 163.335C8.71233 163.218 8.87 163.104 9.002 162.994C9.14133 162.877 9.22933 162.785 9.266 162.719H10.773V167.669H12.17ZM18.5222 167.669V169H14.0562V167.669H15.6182V164.336C15.5522 164.424 15.4459 164.516 15.2992 164.611C15.1599 164.699 15.0059 164.783 14.8372 164.864C14.6685 164.945 14.4925 165.011 14.3092 165.062C14.1332 165.113 13.9755 165.139 13.8362 165.139V163.764C13.9682 163.764 14.1295 163.724 14.3202 163.643C14.5109 163.555 14.6979 163.452 14.8812 163.335C15.0645 163.218 15.2222 163.104 15.3542 162.994C15.4935 162.877 15.5815 162.785 15.6182 162.719H17.1252V167.669H18.5222Z" fill="#999999"/>
<path d="M45.17 167.669V169H40.704V167.669H42.266V164.336C42.2 164.424 42.0937 164.516 41.947 164.611C41.8077 164.699 41.6537 164.783 41.485 164.864C41.3163 164.945 41.1403 165.011 40.957 165.062C40.781 165.113 40.6233 165.139 40.484 165.139V163.764C40.616 163.764 40.7773 163.724 40.968 163.643C41.1587 163.555 41.3457 163.452 41.529 163.335C41.7123 163.218 41.87 163.104 42.002 162.994C42.1413 162.877 42.2293 162.785 42.266 162.719H43.773V167.669H45.17ZM46.7702 169C46.7702 168.67 46.7959 168.373 46.8472 168.109C46.8985 167.838 46.9865 167.588 47.1112 167.361C47.2432 167.134 47.4192 166.921 47.6392 166.723C47.8665 166.525 48.1525 166.331 48.4972 166.14C48.7979 165.979 49.0619 165.839 49.2892 165.722C49.5239 165.597 49.7182 165.484 49.8722 165.381C50.0262 165.278 50.1435 165.176 50.2242 165.073C50.3049 164.963 50.3452 164.838 50.3452 164.699C50.3452 164.479 50.2572 164.292 50.0812 164.138C49.9052 163.977 49.6522 163.896 49.3222 163.896C49.1462 163.896 48.9849 163.922 48.8382 163.973C48.6915 164.017 48.5522 164.079 48.4202 164.16C48.2955 164.241 48.1782 164.332 48.0682 164.435C47.9655 164.53 47.8702 164.633 47.7822 164.743L46.8362 163.654C46.9315 163.551 47.0672 163.441 47.2432 163.324C47.4192 163.199 47.6245 163.086 47.8592 162.983C48.1012 162.873 48.3652 162.785 48.6512 162.719C48.9445 162.646 49.2562 162.609 49.5862 162.609C49.9602 162.609 50.2939 162.657 50.5872 162.752C50.8805 162.84 51.1262 162.968 51.3242 163.137C51.5295 163.298 51.6835 163.496 51.7862 163.731C51.8962 163.958 51.9512 164.208 51.9512 164.479C51.9512 164.736 51.9035 164.963 51.8082 165.161C51.7129 165.359 51.5919 165.535 51.4452 165.689C51.2985 165.843 51.1372 165.979 50.9612 166.096C50.7925 166.206 50.6275 166.305 50.4662 166.393C50.3342 166.466 50.1839 166.551 50.0152 166.646C49.8465 166.741 49.6779 166.848 49.5092 166.965C49.3479 167.075 49.1975 167.192 49.0582 167.317C48.9189 167.434 48.8125 167.552 48.7392 167.669H52.0722V169H46.7702Z" fill="#999999"/>
<path d="M76.17 167.669V169H71.704V167.669H73.266V164.336C73.2 164.424 73.0937 164.516 72.947 164.611C72.8077 164.699 72.6537 164.783 72.485 164.864C72.3163 164.945 72.1403 165.011 71.957 165.062C71.781 165.113 71.6233 165.139 71.484 165.139V163.764C71.616 163.764 71.7773 163.724 71.968 163.643C72.1587 163.555 72.3457 163.452 72.529 163.335C72.7123 163.218 72.87 163.104 73.002 162.994C73.1413 162.877 73.2293 162.785 73.266 162.719H74.773V167.669H76.17ZM81.5432 166.404C81.9979 166.485 82.3645 166.705 82.6432 167.064C82.9292 167.416 83.0722 167.849 83.0722 168.362C83.0722 168.707 83.0025 169.018 82.8632 169.297C82.7312 169.576 82.5405 169.81 82.2912 170.001C82.0492 170.199 81.7522 170.349 81.4002 170.452C81.0482 170.562 80.6522 170.617 80.2122 170.617C79.6549 170.617 79.1599 170.525 78.7272 170.342C78.3019 170.166 77.9462 169.906 77.6602 169.561L78.4962 168.516C78.6869 168.758 78.9142 168.945 79.1782 169.077C79.4422 169.209 79.7722 169.275 80.1682 169.275C80.6155 169.275 80.9565 169.187 81.1912 169.011C81.4259 168.835 81.5432 168.564 81.5432 168.197C81.5432 167.816 81.4075 167.522 81.1362 167.317C80.8649 167.112 80.4542 167.009 79.9042 167.009H79.5962V165.909H79.9372C80.3919 165.909 80.7439 165.81 80.9932 165.612C81.2425 165.407 81.3672 165.146 81.3672 164.831C81.3672 164.53 81.2645 164.307 81.0592 164.16C80.8539 164.013 80.5862 163.94 80.2562 163.94C79.9189 163.94 79.6145 164.017 79.3432 164.171C79.0792 164.325 78.8629 164.541 78.6942 164.82L77.7702 163.786C77.8802 163.617 78.0269 163.467 78.2102 163.335C78.3935 163.196 78.5989 163.078 78.8262 162.983C79.0609 162.88 79.3139 162.803 79.5852 162.752C79.8565 162.693 80.1352 162.664 80.4212 162.664C80.7952 162.664 81.1362 162.712 81.4442 162.807C81.7522 162.902 82.0162 163.034 82.2362 163.203C82.4635 163.372 82.6359 163.577 82.7532 163.819C82.8779 164.054 82.9402 164.318 82.9402 164.611C82.9402 164.831 82.9072 165.04 82.8412 165.238C82.7752 165.436 82.6799 165.616 82.5552 165.777C82.4305 165.938 82.2802 166.074 82.1042 166.184C81.9355 166.294 81.7485 166.367 81.5432 166.404Z" fill="#999999"/>
<path d="M104.17 167.669V169H99.704V167.669H101.266V164.336C101.2 164.424 101.094 164.516 100.947 164.611C100.808 164.699 100.654 164.783 100.485 164.864C100.316 164.945 100.14 165.011 99.957 165.062C99.781 165.113 99.6233 165.139 99.484 165.139V163.764C99.616 163.764 99.7773 163.724 99.968 163.643C100.159 163.555 100.346 163.452 100.529 163.335C100.712 163.218 100.87 163.104 101.002 162.994C101.141 162.877 101.229 162.785 101.266 162.719H102.773V167.669H104.17ZM108.784 170.397V168.758H105.572V167.449L109.257 162.719H110.258V167.438H111.226V168.758H110.258V170.397H108.784ZM107.046 167.438H108.949V164.952L107.046 167.438Z" fill="#999999"/>
<path d="M139.17 167.669V169H134.704V167.669H136.266V164.336C136.2 164.424 136.094 164.516 135.947 164.611C135.808 164.699 135.654 164.783 135.485 164.864C135.316 164.945 135.14 165.011 134.957 165.062C134.781 165.113 134.623 165.139 134.484 165.139V163.764C134.616 163.764 134.777 163.724 134.968 163.643C135.159 163.555 135.346 163.452 135.529 163.335C135.712 163.218 135.87 163.104 136.002 162.994C136.141 162.877 136.229 162.785 136.266 162.719H137.773V167.669H139.17ZM143.542 165.491C143.909 165.491 144.25 165.553 144.565 165.678C144.881 165.795 145.152 165.964 145.379 166.184C145.607 166.404 145.783 166.668 145.907 166.976C146.039 167.284 146.105 167.625 146.105 167.999C146.105 168.395 146.032 168.754 145.885 169.077C145.746 169.4 145.548 169.675 145.291 169.902C145.035 170.137 144.73 170.316 144.378 170.441C144.026 170.573 143.645 170.639 143.234 170.639C142.662 170.639 142.149 170.518 141.694 170.276C141.247 170.034 140.906 169.704 140.671 169.286L141.518 168.406C141.724 168.692 141.98 168.919 142.288 169.088C142.596 169.257 142.915 169.341 143.245 169.341C143.641 169.341 143.964 169.224 144.213 168.989C144.47 168.747 144.598 168.428 144.598 168.032C144.598 167.651 144.477 167.343 144.235 167.108C144.001 166.873 143.7 166.756 143.333 166.756C143.091 166.756 142.864 166.811 142.651 166.921C142.446 167.031 142.281 167.181 142.156 167.372H140.869C140.869 167.35 140.884 167.269 140.913 167.13C140.943 166.983 140.979 166.8 141.023 166.58C141.067 166.353 141.115 166.103 141.166 165.832C141.218 165.553 141.273 165.271 141.331 164.985C141.463 164.31 141.61 163.555 141.771 162.719H145.621V164.061H142.838L142.519 165.81C142.607 165.715 142.736 165.638 142.904 165.579C143.08 165.52 143.293 165.491 143.542 165.491Z" fill="#999999"/>
<path d="M169.17 167.669V169H164.704V167.669H166.266V164.336C166.2 164.424 166.094 164.516 165.947 164.611C165.808 164.699 165.654 164.783 165.485 164.864C165.316 164.945 165.14 165.011 164.957 165.062C164.781 165.113 164.623 165.139 164.484 165.139V163.764C164.616 163.764 164.777 163.724 164.968 163.643C165.159 163.555 165.346 163.452 165.529 163.335C165.712 163.218 165.87 163.104 166.002 162.994C166.141 162.877 166.229 162.785 166.266 162.719H167.773V167.669H169.17ZM176.589 166.393C176.589 166.774 176.516 167.13 176.369 167.46C176.223 167.79 176.021 168.08 175.764 168.329C175.508 168.571 175.203 168.762 174.851 168.901C174.507 169.04 174.133 169.11 173.729 169.11C173.289 169.11 172.89 169.029 172.53 168.868C172.178 168.707 171.878 168.472 171.628 168.164C171.379 167.856 171.188 167.482 171.056 167.042C170.924 166.595 170.858 166.089 170.858 165.524C170.858 164.813 170.928 164.186 171.067 163.643C171.207 163.093 171.408 162.635 171.672 162.268C171.936 161.894 172.255 161.612 172.629 161.421C173.003 161.23 173.421 161.135 173.883 161.135C174.375 161.135 174.826 161.241 175.236 161.454C175.654 161.667 176.006 161.971 176.292 162.367L175.445 163.291C175.269 163.012 175.042 162.796 174.763 162.642C174.485 162.488 174.184 162.411 173.861 162.411C173.37 162.411 172.978 162.605 172.684 162.994C172.391 163.383 172.237 163.933 172.222 164.644C172.376 164.38 172.593 164.171 172.871 164.017C173.157 163.863 173.487 163.786 173.861 163.786C174.243 163.786 174.598 163.852 174.928 163.984C175.266 164.116 175.555 164.299 175.797 164.534C176.047 164.769 176.241 165.047 176.38 165.37C176.52 165.685 176.589 166.026 176.589 166.393ZM173.74 167.867C173.931 167.867 174.114 167.83 174.29 167.757C174.466 167.676 174.62 167.57 174.752 167.438C174.884 167.299 174.987 167.141 175.06 166.965C175.141 166.782 175.181 166.591 175.181 166.393C175.181 166.195 175.141 166.012 175.06 165.843C174.987 165.667 174.884 165.513 174.752 165.381C174.62 165.249 174.466 165.146 174.29 165.073C174.122 165 173.938 164.963 173.74 164.963C173.542 164.963 173.355 165 173.179 165.073C173.003 165.146 172.849 165.249 172.717 165.381C172.585 165.513 172.483 165.667 172.409 165.843C172.336 166.012 172.299 166.195 172.299 166.393C172.299 166.591 172.336 166.782 172.409 166.965C172.49 167.141 172.596 167.295 172.728 167.427C172.86 167.559 173.011 167.665 173.179 167.746C173.355 167.827 173.542 167.867 173.74 167.867Z" fill="#999999"/>
<path d="M197.17 167.669V169H192.704V167.669H194.266V164.336C194.2 164.424 194.094 164.516 193.947 164.611C193.808 164.699 193.654 164.783 193.485 164.864C193.316 164.945 193.14 165.011 192.957 165.062C192.781 165.113 192.623 165.139 192.484 165.139V163.764C192.616 163.764 192.777 163.724 192.968 163.643C193.159 163.555 193.346 163.452 193.529 163.335C193.712 163.218 193.87 163.104 194.002 162.994C194.141 162.877 194.229 162.785 194.266 162.719H195.773V167.669H197.17ZM202.02 163.929H198.467V162.587H204.341L200.469 170.397H198.797L202.02 163.929Z" fill="#999999"/>
</g>
<path d="M12.17 206.669V208H7.704V206.669H9.266V203.336C9.2 203.424 9.09367 203.516 8.947 203.611C8.80767 203.699 8.65367 203.783 8.485 203.864C8.31633 203.945 8.14033 204.011 7.957 204.062C7.781 204.113 7.62333 204.139 7.484 204.139V202.764C7.616 202.764 7.77733 202.724 7.968 202.643C8.15867 202.555 8.34567 202.452 8.529 202.335C8.71233 202.218 8.87 202.104 9.002 201.994C9.14133 201.877 9.22933 201.785 9.266 201.719H10.773V206.669H12.17ZM19.5122 205.69C19.5122 206.057 19.4352 206.387 19.2812 206.68C19.1345 206.973 18.9292 207.226 18.6652 207.439C18.4085 207.652 18.1079 207.817 17.7632 207.934C17.4185 208.044 17.0519 208.099 16.6632 208.099C16.2745 208.099 15.9079 208.04 15.5632 207.923C15.2185 207.798 14.9179 207.626 14.6612 207.406C14.4045 207.186 14.2029 206.926 14.0562 206.625C13.9095 206.324 13.8362 205.994 13.8362 205.635C13.8362 205.415 13.8729 205.213 13.9462 205.03C14.0195 204.839 14.1149 204.667 14.2322 204.513C14.3495 204.359 14.4779 204.223 14.6172 204.106C14.7639 203.989 14.9105 203.893 15.0572 203.82C14.7859 203.688 14.5549 203.49 14.3642 203.226C14.1735 202.962 14.0782 202.672 14.0782 202.357C14.0782 202.005 14.1552 201.697 14.3092 201.433C14.4705 201.162 14.6759 200.934 14.9252 200.751C15.1819 200.568 15.4605 200.428 15.7612 200.333C16.0692 200.238 16.3735 200.19 16.6742 200.19C16.9675 200.19 17.2682 200.238 17.5762 200.333C17.8915 200.421 18.1739 200.557 18.4232 200.74C18.6725 200.923 18.8779 201.151 19.0392 201.422C19.2005 201.686 19.2812 201.994 19.2812 202.346C19.2812 202.5 19.2555 202.654 19.2042 202.808C19.1529 202.955 19.0795 203.094 18.9842 203.226C18.8962 203.351 18.7899 203.464 18.6652 203.567C18.5405 203.67 18.4085 203.754 18.2692 203.82C18.4305 203.901 18.5845 204.003 18.7312 204.128C18.8779 204.245 19.0099 204.385 19.1272 204.546C19.2445 204.7 19.3362 204.872 19.4022 205.063C19.4755 205.254 19.5122 205.463 19.5122 205.69ZM18.0162 205.602C18.0162 205.419 17.9759 205.254 17.8952 205.107C17.8219 204.96 17.7192 204.839 17.5872 204.744C17.4625 204.641 17.3195 204.564 17.1582 204.513C16.9969 204.462 16.8319 204.436 16.6632 204.436C16.4872 204.436 16.3185 204.465 16.1572 204.524C15.9959 204.575 15.8529 204.652 15.7282 204.755C15.6109 204.858 15.5155 204.982 15.4422 205.129C15.3689 205.268 15.3322 205.426 15.3322 205.602C15.3322 205.778 15.3689 205.939 15.4422 206.086C15.5229 206.225 15.6255 206.346 15.7502 206.449C15.8749 206.552 16.0179 206.632 16.1792 206.691C16.3405 206.742 16.5055 206.768 16.6742 206.768C16.8502 206.768 17.0189 206.739 17.1802 206.68C17.3415 206.621 17.4845 206.541 17.6092 206.438C17.7339 206.335 17.8329 206.214 17.9062 206.075C17.9795 205.928 18.0162 205.771 18.0162 205.602ZM15.5742 202.401C15.5742 202.555 15.6072 202.691 15.6732 202.808C15.7392 202.918 15.8235 203.013 15.9262 203.094C16.0362 203.167 16.1535 203.226 16.2782 203.27C16.4102 203.307 16.5422 203.325 16.6742 203.325C16.7989 203.325 16.9272 203.307 17.0592 203.27C17.1912 203.226 17.3085 203.164 17.4112 203.083C17.5212 203.002 17.6092 202.907 17.6752 202.797C17.7412 202.68 17.7742 202.544 17.7742 202.39C17.7742 202.119 17.6642 201.902 17.4442 201.741C17.2315 201.58 16.9712 201.499 16.6632 201.499C16.3625 201.499 16.1059 201.583 15.8932 201.752C15.6805 201.913 15.5742 202.13 15.5742 202.401Z" fill="#999999"/>
<path d="M45.17 206.669V208H40.704V206.669H42.266V203.336C42.2 203.424 42.0937 203.516 41.947 203.611C41.8077 203.699 41.6537 203.783 41.485 203.864C41.3163 203.945 41.1403 204.011 40.957 204.062C40.781 204.113 40.6233 204.139 40.484 204.139V202.764C40.616 202.764 40.7773 202.724 40.968 202.643C41.1587 202.555 41.3457 202.452 41.529 202.335C41.7123 202.218 41.87 202.104 42.002 201.994C42.1413 201.877 42.2293 201.785 42.266 201.719H43.773V206.669H45.17ZM46.7042 204.436C46.7042 204.055 46.7775 203.699 46.9242 203.369C47.0709 203.039 47.2689 202.753 47.5182 202.511C47.7749 202.262 48.0755 202.067 48.4202 201.928C48.7722 201.789 49.1499 201.719 49.5532 201.719C49.9932 201.719 50.3892 201.8 50.7412 201.961C51.1005 202.122 51.4049 202.357 51.6542 202.665C51.9035 202.973 52.0942 203.351 52.2262 203.798C52.3655 204.238 52.4352 204.74 52.4352 205.305C52.4352 206.016 52.3619 206.647 52.2152 207.197C52.0759 207.74 51.8742 208.194 51.6102 208.561C51.3535 208.935 51.0382 209.217 50.6642 209.408C50.2902 209.599 49.8722 209.694 49.4102 209.694C48.9189 209.694 48.4642 209.588 48.0462 209.375C47.6282 209.162 47.2762 208.858 46.9902 208.462L47.8372 207.538C48.0132 207.817 48.2405 208.033 48.5192 208.187C48.7979 208.341 49.1022 208.418 49.4322 208.418C49.9235 208.418 50.3122 208.224 50.5982 207.835C50.8915 207.446 51.0455 206.896 51.0602 206.185C50.9135 206.449 50.6972 206.658 50.4112 206.812C50.1252 206.966 49.7952 207.043 49.4212 207.043C49.0325 207.043 48.6732 206.977 48.3432 206.845C48.0132 206.713 47.7272 206.53 47.4852 206.295C47.2432 206.06 47.0525 205.785 46.9132 205.47C46.7739 205.147 46.7042 204.803 46.7042 204.436ZM49.5532 202.962C49.3552 202.962 49.1682 203.002 48.9922 203.083C48.8235 203.156 48.6732 203.263 48.5412 203.402C48.4092 203.534 48.3029 203.692 48.2222 203.875C48.1489 204.051 48.1122 204.238 48.1122 204.436C48.1122 204.634 48.1489 204.821 48.2222 204.997C48.3029 205.166 48.4055 205.316 48.5302 205.448C48.6622 205.58 48.8162 205.683 48.9922 205.756C49.1682 205.829 49.3552 205.866 49.5532 205.866C49.7512 205.866 49.9382 205.829 50.1142 205.756C50.2902 205.683 50.4405 205.58 50.5652 205.448C50.6972 205.316 50.7999 205.166 50.8732 204.997C50.9539 204.821 50.9942 204.634 50.9942 204.436C50.9942 204.238 50.9539 204.051 50.8732 203.875C50.7999 203.692 50.6972 203.534 50.5652 203.402C50.4332 203.27 50.2792 203.164 50.1032 203.083C49.9345 203.002 49.7512 202.962 49.5532 202.962Z" fill="#999999"/>
<path d="M71.418 208C71.418 207.67 71.4437 207.373 71.495 207.109C71.5463 206.838 71.6343 206.588 71.759 206.361C71.891 206.134 72.067 205.921 72.287 205.723C72.5143 205.525 72.8003 205.331 73.145 205.14C73.4457 204.979 73.7097 204.839 73.937 204.722C74.1717 204.597 74.366 204.484 74.52 204.381C74.674 204.278 74.7913 204.176 74.872 204.073C74.9527 203.963 74.993 203.838 74.993 203.699C74.993 203.479 74.905 203.292 74.729 203.138C74.553 202.977 74.3 202.896 73.97 202.896C73.794 202.896 73.6327 202.922 73.486 202.973C73.3393 203.017 73.2 203.079 73.068 203.16C72.9433 203.241 72.826 203.332 72.716 203.435C72.6133 203.53 72.518 203.633 72.43 203.743L71.484 202.654C71.5793 202.551 71.715 202.441 71.891 202.324C72.067 202.199 72.2723 202.086 72.507 201.983C72.749 201.873 73.013 201.785 73.299 201.719C73.5923 201.646 73.904 201.609 74.234 201.609C74.608 201.609 74.9417 201.657 75.235 201.752C75.5283 201.84 75.774 201.968 75.972 202.137C76.1773 202.298 76.3313 202.496 76.434 202.731C76.544 202.958 76.599 203.208 76.599 203.479C76.599 203.736 76.5513 203.963 76.456 204.161C76.3607 204.359 76.2397 204.535 76.093 204.689C75.9463 204.843 75.785 204.979 75.609 205.096C75.4403 205.206 75.2753 205.305 75.114 205.393C74.982 205.466 74.8317 205.551 74.663 205.646C74.4943 205.741 74.3257 205.848 74.157 205.965C73.9957 206.075 73.8453 206.192 73.706 206.317C73.5667 206.434 73.4603 206.552 73.387 206.669H76.72V208H71.418ZM84.3407 204.777C84.3407 205.261 84.2673 205.708 84.1207 206.119C83.9813 206.522 83.7833 206.874 83.5267 207.175C83.2773 207.468 82.9767 207.699 82.6247 207.868C82.28 208.029 81.906 208.11 81.5027 208.11C81.092 208.11 80.7143 208.029 80.3697 207.868C80.025 207.699 79.7243 207.468 79.4677 207.175C79.2183 206.874 79.0203 206.522 78.8737 206.119C78.7343 205.708 78.6647 205.261 78.6647 204.777C78.6647 204.293 78.7343 203.849 78.8737 203.446C79.0203 203.035 79.2183 202.683 79.4677 202.39C79.7243 202.089 80.025 201.855 80.3697 201.686C80.7143 201.517 81.092 201.433 81.5027 201.433C81.906 201.433 82.28 201.517 82.6247 201.686C82.9767 201.855 83.2773 202.089 83.5267 202.39C83.7833 202.683 83.9813 203.035 84.1207 203.446C84.2673 203.849 84.3407 204.293 84.3407 204.777ZM82.8557 204.777C82.8557 204.484 82.8227 204.216 82.7567 203.974C82.6907 203.725 82.5953 203.512 82.4707 203.336C82.3533 203.16 82.2103 203.024 82.0417 202.929C81.8803 202.834 81.7007 202.786 81.5027 202.786C81.2973 202.786 81.1103 202.834 80.9417 202.929C80.7803 203.024 80.6373 203.16 80.5127 203.336C80.3953 203.512 80.3037 203.725 80.2377 203.974C80.1717 204.216 80.1387 204.484 80.1387 204.777C80.1387 205.07 80.1717 205.338 80.2377 205.58C80.3037 205.822 80.3953 206.031 80.5127 206.207C80.6373 206.383 80.7803 206.519 80.9417 206.614C81.1103 206.709 81.2973 206.757 81.5027 206.757C81.7007 206.757 81.8803 206.709 82.0417 206.614C82.2103 206.519 82.3533 206.383 82.4707 206.207C82.5953 206.031 82.6907 205.822 82.7567 205.58C82.8227 205.338 82.8557 205.07 82.8557 204.777Z" fill="#999999"/>
<path d="M99.418 208C99.418 207.67 99.4437 207.373 99.495 207.109C99.5463 206.838 99.6343 206.588 99.759 206.361C99.891 206.134 100.067 205.921 100.287 205.723C100.514 205.525 100.8 205.331 101.145 205.14C101.446 204.979 101.71 204.839 101.937 204.722C102.172 204.597 102.366 204.484 102.52 204.381C102.674 204.278 102.791 204.176 102.872 204.073C102.953 203.963 102.993 203.838 102.993 203.699C102.993 203.479 102.905 203.292 102.729 203.138C102.553 202.977 102.3 202.896 101.97 202.896C101.794 202.896 101.633 202.922 101.486 202.973C101.339 203.017 101.2 203.079 101.068 203.16C100.943 203.241 100.826 203.332 100.716 203.435C100.613 203.53 100.518 203.633 100.43 203.743L99.484 202.654C99.5793 202.551 99.715 202.441 99.891 202.324C100.067 202.199 100.272 202.086 100.507 201.983C100.749 201.873 101.013 201.785 101.299 201.719C101.592 201.646 101.904 201.609 102.234 201.609C102.608 201.609 102.942 201.657 103.235 201.752C103.528 201.84 103.774 201.968 103.972 202.137C104.177 202.298 104.331 202.496 104.434 202.731C104.544 202.958 104.599 203.208 104.599 203.479C104.599 203.736 104.551 203.963 104.456 204.161C104.361 204.359 104.24 204.535 104.093 204.689C103.946 204.843 103.785 204.979 103.609 205.096C103.44 205.206 103.275 205.305 103.114 205.393C102.982 205.466 102.832 205.551 102.663 205.646C102.494 205.741 102.326 205.848 102.157 205.965C101.996 206.075 101.845 206.192 101.706 206.317C101.567 206.434 101.46 206.552 101.387 206.669H104.72V208H99.418ZM111.296 206.669V208H106.83V206.669H108.392V203.336C108.326 203.424 108.219 203.516 108.073 203.611C107.933 203.699 107.779 203.783 107.611 203.864C107.442 203.945 107.266 204.011 107.083 204.062C106.907 204.113 106.749 204.139 106.61 204.139V202.764C106.742 202.764 106.903 202.724 107.094 202.643C107.284 202.555 107.471 202.452 107.655 202.335C107.838 202.218 107.996 202.104 108.128 201.994C108.267 201.877 108.355 201.785 108.392 201.719H109.899V206.669H111.296Z" fill="#999999"/>
<path d="M134.418 208C134.418 207.67 134.444 207.373 134.495 207.109C134.546 206.838 134.634 206.588 134.759 206.361C134.891 206.134 135.067 205.921 135.287 205.723C135.514 205.525 135.8 205.331 136.145 205.14C136.446 204.979 136.71 204.839 136.937 204.722C137.172 204.597 137.366 204.484 137.52 204.381C137.674 204.278 137.791 204.176 137.872 204.073C137.953 203.963 137.993 203.838 137.993 203.699C137.993 203.479 137.905 203.292 137.729 203.138C137.553 202.977 137.3 202.896 136.97 202.896C136.794 202.896 136.633 202.922 136.486 202.973C136.339 203.017 136.2 203.079 136.068 203.16C135.943 203.241 135.826 203.332 135.716 203.435C135.613 203.53 135.518 203.633 135.43 203.743L134.484 202.654C134.579 202.551 134.715 202.441 134.891 202.324C135.067 202.199 135.272 202.086 135.507 201.983C135.749 201.873 136.013 201.785 136.299 201.719C136.592 201.646 136.904 201.609 137.234 201.609C137.608 201.609 137.942 201.657 138.235 201.752C138.528 201.84 138.774 201.968 138.972 202.137C139.177 202.298 139.331 202.496 139.434 202.731C139.544 202.958 139.599 203.208 139.599 203.479C139.599 203.736 139.551 203.963 139.456 204.161C139.361 204.359 139.24 204.535 139.093 204.689C138.946 204.843 138.785 204.979 138.609 205.096C138.44 205.206 138.275 205.305 138.114 205.393C137.982 205.466 137.832 205.551 137.663 205.646C137.494 205.741 137.326 205.848 137.157 205.965C136.996 206.075 136.845 206.192 136.706 206.317C136.567 206.434 136.46 206.552 136.387 206.669H139.72V208H134.418ZM141.544 208C141.544 207.67 141.569 207.373 141.621 207.109C141.672 206.838 141.76 206.588 141.885 206.361C142.017 206.134 142.193 205.921 142.413 205.723C142.64 205.525 142.926 205.331 143.271 205.14C143.571 204.979 143.835 204.839 144.063 204.722C144.297 204.597 144.492 204.484 144.646 204.381C144.8 204.278 144.917 204.176 144.998 204.073C145.078 203.963 145.119 203.838 145.119 203.699C145.119 203.479 145.031 203.292 144.855 203.138C144.679 202.977 144.426 202.896 144.096 202.896C143.92 202.896 143.758 202.922 143.612 202.973C143.465 203.017 143.326 203.079 143.194 203.16C143.069 203.241 142.952 203.332 142.842 203.435C142.739 203.53 142.644 203.633 142.556 203.743L141.61 202.654C141.705 202.551 141.841 202.441 142.017 202.324C142.193 202.199 142.398 202.086 142.633 201.983C142.875 201.873 143.139 201.785 143.425 201.719C143.718 201.646 144.03 201.609 144.36 201.609C144.734 201.609 145.067 201.657 145.361 201.752C145.654 201.84 145.9 201.968 146.098 202.137C146.303 202.298 146.457 202.496 146.56 202.731C146.67 202.958 146.725 203.208 146.725 203.479C146.725 203.736 146.677 203.963 146.582 204.161C146.486 204.359 146.365 204.535 146.219 204.689C146.072 204.843 145.911 204.979 145.735 205.096C145.566 205.206 145.401 205.305 145.24 205.393C145.108 205.466 144.957 205.551 144.789 205.646C144.62 205.741 144.451 205.848 144.283 205.965C144.121 206.075 143.971 206.192 143.832 206.317C143.692 206.434 143.586 206.552 143.513 206.669H146.846V208H141.544Z" fill="#999999"/>
<path d="M164.418 208C164.418 207.67 164.444 207.373 164.495 207.109C164.546 206.838 164.634 206.588 164.759 206.361C164.891 206.134 165.067 205.921 165.287 205.723C165.514 205.525 165.8 205.331 166.145 205.14C166.446 204.979 166.71 204.839 166.937 204.722C167.172 204.597 167.366 204.484 167.52 204.381C167.674 204.278 167.791 204.176 167.872 204.073C167.953 203.963 167.993 203.838 167.993 203.699C167.993 203.479 167.905 203.292 167.729 203.138C167.553 202.977 167.3 202.896 166.97 202.896C166.794 202.896 166.633 202.922 166.486 202.973C166.339 203.017 166.2 203.079 166.068 203.16C165.943 203.241 165.826 203.332 165.716 203.435C165.613 203.53 165.518 203.633 165.43 203.743L164.484 202.654C164.579 202.551 164.715 202.441 164.891 202.324C165.067 202.199 165.272 202.086 165.507 201.983C165.749 201.873 166.013 201.785 166.299 201.719C166.592 201.646 166.904 201.609 167.234 201.609C167.608 201.609 167.942 201.657 168.235 201.752C168.528 201.84 168.774 201.968 168.972 202.137C169.177 202.298 169.331 202.496 169.434 202.731C169.544 202.958 169.599 203.208 169.599 203.479C169.599 203.736 169.551 203.963 169.456 204.161C169.361 204.359 169.24 204.535 169.093 204.689C168.946 204.843 168.785 204.979 168.609 205.096C168.44 205.206 168.275 205.305 168.114 205.393C167.982 205.466 167.832 205.551 167.663 205.646C167.494 205.741 167.326 205.848 167.157 205.965C166.996 206.075 166.845 206.192 166.706 206.317C166.567 206.434 166.46 206.552 166.387 206.669H169.72V208H164.418ZM175.317 205.404C175.771 205.485 176.138 205.705 176.417 206.064C176.703 206.416 176.846 206.849 176.846 207.362C176.846 207.707 176.776 208.018 176.637 208.297C176.505 208.576 176.314 208.81 176.065 209.001C175.823 209.199 175.526 209.349 175.174 209.452C174.822 209.562 174.426 209.617 173.986 209.617C173.428 209.617 172.933 209.525 172.501 209.342C172.075 209.166 171.72 208.906 171.434 208.561L172.27 207.516C172.46 207.758 172.688 207.945 172.952 208.077C173.216 208.209 173.546 208.275 173.942 208.275C174.389 208.275 174.73 208.187 174.965 208.011C175.199 207.835 175.317 207.564 175.317 207.197C175.317 206.816 175.181 206.522 174.91 206.317C174.638 206.112 174.228 206.009 173.678 206.009H173.37V204.909H173.711C174.165 204.909 174.517 204.81 174.767 204.612C175.016 204.407 175.141 204.146 175.141 203.831C175.141 203.53 175.038 203.307 174.833 203.16C174.627 203.013 174.36 202.94 174.03 202.94C173.692 202.94 173.388 203.017 173.117 203.171C172.853 203.325 172.636 203.541 172.468 203.82L171.544 202.786C171.654 202.617 171.8 202.467 171.984 202.335C172.167 202.196 172.372 202.078 172.6 201.983C172.834 201.88 173.087 201.803 173.359 201.752C173.63 201.693 173.909 201.664 174.195 201.664C174.569 201.664 174.91 201.712 175.218 201.807C175.526 201.902 175.79 202.034 176.01 202.203C176.237 202.372 176.409 202.577 176.527 202.819C176.651 203.054 176.714 203.318 176.714 203.611C176.714 203.831 176.681 204.04 176.615 204.238C176.549 204.436 176.453 204.616 176.329 204.777C176.204 204.938 176.054 205.074 175.878 205.184C175.709 205.294 175.522 205.367 175.317 205.404Z" fill="#999999"/>
<path d="M192.418 208C192.418 207.67 192.444 207.373 192.495 207.109C192.546 206.838 192.634 206.588 192.759 206.361C192.891 206.134 193.067 205.921 193.287 205.723C193.514 205.525 193.8 205.331 194.145 205.14C194.446 204.979 194.71 204.839 194.937 204.722C195.172 204.597 195.366 204.484 195.52 204.381C195.674 204.278 195.791 204.176 195.872 204.073C195.953 203.963 195.993 203.838 195.993 203.699C195.993 203.479 195.905 203.292 195.729 203.138C195.553 202.977 195.3 202.896 194.97 202.896C194.794 202.896 194.633 202.922 194.486 202.973C194.339 203.017 194.2 203.079 194.068 203.16C193.943 203.241 193.826 203.332 193.716 203.435C193.613 203.53 193.518 203.633 193.43 203.743L192.484 202.654C192.579 202.551 192.715 202.441 192.891 202.324C193.067 202.199 193.272 202.086 193.507 201.983C193.749 201.873 194.013 201.785 194.299 201.719C194.592 201.646 194.904 201.609 195.234 201.609C195.608 201.609 195.942 201.657 196.235 201.752C196.528 201.84 196.774 201.968 196.972 202.137C197.177 202.298 197.331 202.496 197.434 202.731C197.544 202.958 197.599 203.208 197.599 203.479C197.599 203.736 197.551 203.963 197.456 204.161C197.361 204.359 197.24 204.535 197.093 204.689C196.946 204.843 196.785 204.979 196.609 205.096C196.44 205.206 196.275 205.305 196.114 205.393C195.982 205.466 195.832 205.551 195.663 205.646C195.494 205.741 195.326 205.848 195.157 205.965C194.996 206.075 194.845 206.192 194.706 206.317C194.567 206.434 194.46 206.552 194.387 206.669H197.72V208H192.418ZM202.558 209.397V207.758H199.346V206.449L203.031 201.719H204.032V206.438H205V207.758H204.032V209.397H202.558ZM200.82 206.438H202.723V203.952L200.82 206.438Z" fill="#999999"/>
<path d="M7.418 247C7.418 246.67 7.44367 246.373 7.495 246.109C7.54633 245.838 7.63433 245.588 7.759 245.361C7.891 245.134 8.067 244.921 8.287 244.723C8.51433 244.525 8.80033 244.331 9.145 244.14C9.44567 243.979 9.70967 243.839 9.937 243.722C10.1717 243.597 10.366 243.484 10.52 243.381C10.674 243.278 10.7913 243.176 10.872 243.073C10.9527 242.963 10.993 242.838 10.993 242.699C10.993 242.479 10.905 242.292 10.729 242.138C10.553 241.977 10.3 241.896 9.97 241.896C9.794 241.896 9.63267 241.922 9.486 241.973C9.33933 242.017 9.2 242.079 9.068 242.16C8.94333 242.241 8.826 242.332 8.716 242.435C8.61333 242.53 8.518 242.633 8.43 242.743L7.484 241.654C7.57933 241.551 7.715 241.441 7.891 241.324C8.067 241.199 8.27233 241.086 8.507 240.983C8.749 240.873 9.013 240.785 9.299 240.719C9.59233 240.646 9.904 240.609 10.234 240.609C10.608 240.609 10.9417 240.657 11.235 240.752C11.5283 240.84 11.774 240.968 11.972 241.137C12.1773 241.298 12.3313 241.496 12.434 241.731C12.544 241.958 12.599 242.208 12.599 242.479C12.599 242.736 12.5513 242.963 12.456 243.161C12.3607 243.359 12.2397 243.535 12.093 243.689C11.9463 243.843 11.785 243.979 11.609 244.096C11.4403 244.206 11.2753 244.305 11.114 244.393C10.982 244.466 10.8317 244.551 10.663 244.646C10.4943 244.741 10.3257 244.848 10.157 244.965C9.99567 245.075 9.84533 245.192 9.706 245.317C9.56667 245.434 9.46033 245.552 9.387 245.669H12.72V247H7.418ZM17.3157 243.491C17.6823 243.491 18.0233 243.553 18.3387 243.678C18.654 243.795 18.9253 243.964 19.1527 244.184C19.38 244.404 19.556 244.668 19.6807 244.976C19.8127 245.284 19.8787 245.625 19.8787 245.999C19.8787 246.395 19.8053 246.754 19.6587 247.077C19.5193 247.4 19.3213 247.675 19.0647 247.902C18.808 248.137 18.5037 248.316 18.1517 248.441C17.7997 248.573 17.4183 248.639 17.0077 248.639C16.4357 248.639 15.9223 248.518 15.4677 248.276C15.0203 248.034 14.6793 247.704 14.4447 247.286L15.2917 246.406C15.497 246.692 15.7537 246.919 16.0617 247.088C16.3697 247.257 16.6887 247.341 17.0187 247.341C17.4147 247.341 17.7373 247.224 17.9867 246.989C18.2433 246.747 18.3717 246.428 18.3717 246.032C18.3717 245.651 18.2507 245.343 18.0087 245.108C17.774 244.873 17.4733 244.756 17.1067 244.756C16.8647 244.756 16.6373 244.811 16.4247 244.921C16.2193 245.031 16.0543 245.181 15.9297 245.372H14.6427C14.6427 245.35 14.6573 245.269 14.6867 245.13C14.716 244.983 14.7527 244.8 14.7967 244.58C14.8407 244.353 14.8883 244.103 14.9397 243.832C14.991 243.553 15.046 243.271 15.1047 242.985C15.2367 242.31 15.3833 241.555 15.5447 240.719H19.3947V242.061H16.6117L16.2927 243.81C16.3807 243.715 16.509 243.638 16.6777 243.579C16.8537 243.52 17.0663 243.491 17.3157 243.491Z" fill="#999999"/>
<path d="M40.418 247C40.418 246.67 40.4437 246.373 40.495 246.109C40.5463 245.838 40.6343 245.588 40.759 245.361C40.891 245.134 41.067 244.921 41.287 244.723C41.5143 244.525 41.8003 244.331 42.145 244.14C42.4457 243.979 42.7097 243.839 42.937 243.722C43.1717 243.597 43.366 243.484 43.52 243.381C43.674 243.278 43.7913 243.176 43.872 243.073C43.9527 242.963 43.993 242.838 43.993 242.699C43.993 242.479 43.905 242.292 43.729 242.138C43.553 241.977 43.3 241.896 42.97 241.896C42.794 241.896 42.6327 241.922 42.486 241.973C42.3393 242.017 42.2 242.079 42.068 242.16C41.9433 242.241 41.826 242.332 41.716 242.435C41.6133 242.53 41.518 242.633 41.43 242.743L40.484 241.654C40.5793 241.551 40.715 241.441 40.891 241.324C41.067 241.199 41.2723 241.086 41.507 240.983C41.749 240.873 42.013 240.785 42.299 240.719C42.5923 240.646 42.904 240.609 43.234 240.609C43.608 240.609 43.9417 240.657 44.235 240.752C44.5283 240.84 44.774 240.968 44.972 241.137C45.1773 241.298 45.3313 241.496 45.434 241.731C45.544 241.958 45.599 242.208 45.599 242.479C45.599 242.736 45.5513 242.963 45.456 243.161C45.3607 243.359 45.2397 243.535 45.093 243.689C44.9463 243.843 44.785 243.979 44.609 244.096C44.4403 244.206 44.2753 244.305 44.114 244.393C43.982 244.466 43.8317 244.551 43.663 244.646C43.4943 244.741 43.3257 244.848 43.157 244.965C42.9957 245.075 42.8453 245.192 42.706 245.317C42.5667 245.434 42.4603 245.552 42.387 245.669H45.72V247H40.418ZM53.3627 244.393C53.3627 244.774 53.2893 245.13 53.1427 245.46C52.996 245.79 52.7943 246.08 52.5377 246.329C52.281 246.571 51.9767 246.762 51.6247 246.901C51.28 247.04 50.906 247.11 50.5027 247.11C50.0627 247.11 49.663 247.029 49.3037 246.868C48.9517 246.707 48.651 246.472 48.4017 246.164C48.1523 245.856 47.9617 245.482 47.8297 245.042C47.6977 244.595 47.6317 244.089 47.6317 243.524C47.6317 242.813 47.7013 242.186 47.8407 241.643C47.98 241.093 48.1817 240.635 48.4457 240.268C48.7097 239.894 49.0287 239.612 49.4027 239.421C49.7767 239.23 50.1947 239.135 50.6567 239.135C51.148 239.135 51.599 239.241 52.0097 239.454C52.4277 239.667 52.7797 239.971 53.0657 240.367L52.2187 241.291C52.0427 241.012 51.8153 240.796 51.5367 240.642C51.258 240.488 50.9573 240.411 50.6347 240.411C50.1433 240.411 49.751 240.605 49.4577 240.994C49.1643 241.383 49.0103 241.933 48.9957 242.644C49.1497 242.38 49.366 242.171 49.6447 242.017C49.9307 241.863 50.2607 241.786 50.6347 241.786C51.016 241.786 51.3717 241.852 51.7017 241.984C52.039 242.116 52.3287 242.299 52.5707 242.534C52.82 242.769 53.0143 243.047 53.1537 243.37C53.293 243.685 53.3627 244.026 53.3627 244.393ZM50.5137 245.867C50.7043 245.867 50.8877 245.83 51.0637 245.757C51.2397 245.676 51.3937 245.57 51.5257 245.438C51.6577 245.299 51.7603 245.141 51.8337 244.965C51.9143 244.782 51.9547 244.591 51.9547 244.393C51.9547 244.195 51.9143 244.012 51.8337 243.843C51.7603 243.667 51.6577 243.513 51.5257 243.381C51.3937 243.249 51.2397 243.146 51.0637 243.073C50.895 243 50.7117 242.963 50.5137 242.963C50.3157 242.963 50.1287 243 49.9527 243.073C49.7767 243.146 49.6227 243.249 49.4907 243.381C49.3587 243.513 49.256 243.667 49.1827 243.843C49.1093 244.012 49.0727 244.195 49.0727 244.393C49.0727 244.591 49.1093 244.782 49.1827 244.965C49.2633 245.141 49.3697 245.295 49.5017 245.427C49.6337 245.559 49.784 245.665 49.9527 245.746C50.1287 245.827 50.3157 245.867 50.5137 245.867Z" fill="#999999"/>
<path d="M71.418 247C71.418 246.67 71.4437 246.373 71.495 246.109C71.5463 245.838 71.6343 245.588 71.759 245.361C71.891 245.134 72.067 244.921 72.287 244.723C72.5143 244.525 72.8003 244.331 73.145 244.14C73.4457 243.979 73.7097 243.839 73.937 243.722C74.1717 243.597 74.366 243.484 74.52 243.381C74.674 243.278 74.7913 243.176 74.872 243.073C74.9527 242.963 74.993 242.838 74.993 242.699C74.993 242.479 74.905 242.292 74.729 242.138C74.553 241.977 74.3 241.896 73.97 241.896C73.794 241.896 73.6327 241.922 73.486 241.973C73.3393 242.017 73.2 242.079 73.068 242.16C72.9433 242.241 72.826 242.332 72.716 242.435C72.6133 242.53 72.518 242.633 72.43 242.743L71.484 241.654C71.5793 241.551 71.715 241.441 71.891 241.324C72.067 241.199 72.2723 241.086 72.507 240.983C72.749 240.873 73.013 240.785 73.299 240.719C73.5923 240.646 73.904 240.609 74.234 240.609C74.608 240.609 74.9417 240.657 75.235 240.752C75.5283 240.84 75.774 240.968 75.972 241.137C76.1773 241.298 76.3313 241.496 76.434 241.731C76.544 241.958 76.599 242.208 76.599 242.479C76.599 242.736 76.5513 242.963 76.456 243.161C76.3607 243.359 76.2397 243.535 76.093 243.689C75.9463 243.843 75.785 243.979 75.609 244.096C75.4403 244.206 75.2753 244.305 75.114 244.393C74.982 244.466 74.8317 244.551 74.663 244.646C74.4943 244.741 74.3257 244.848 74.157 244.965C73.9957 245.075 73.8453 245.192 73.706 245.317C73.5667 245.434 73.4603 245.552 73.387 245.669H76.72V247H71.418ZM81.9867 241.929H78.4337V240.587H84.3077L80.4357 248.397H78.7637L81.9867 241.929Z" fill="#999999"/>
<path d="M99.418 247C99.418 246.67 99.4437 246.373 99.495 246.109C99.5463 245.838 99.6343 245.588 99.759 245.361C99.891 245.134 100.067 244.921 100.287 244.723C100.514 244.525 100.8 244.331 101.145 244.14C101.446 243.979 101.71 243.839 101.937 243.722C102.172 243.597 102.366 243.484 102.52 243.381C102.674 243.278 102.791 243.176 102.872 243.073C102.953 242.963 102.993 242.838 102.993 242.699C102.993 242.479 102.905 242.292 102.729 242.138C102.553 241.977 102.3 241.896 101.97 241.896C101.794 241.896 101.633 241.922 101.486 241.973C101.339 242.017 101.2 242.079 101.068 242.16C100.943 242.241 100.826 242.332 100.716 242.435C100.613 242.53 100.518 242.633 100.43 242.743L99.484 241.654C99.5793 241.551 99.715 241.441 99.891 241.324C100.067 241.199 100.272 241.086 100.507 240.983C100.749 240.873 101.013 240.785 101.299 240.719C101.592 240.646 101.904 240.609 102.234 240.609C102.608 240.609 102.942 240.657 103.235 240.752C103.528 240.84 103.774 240.968 103.972 241.137C104.177 241.298 104.331 241.496 104.434 241.731C104.544 241.958 104.599 242.208 104.599 242.479C104.599 242.736 104.551 242.963 104.456 243.161C104.361 243.359 104.24 243.535 104.093 243.689C103.946 243.843 103.785 243.979 103.609 244.096C103.44 244.206 103.275 244.305 103.114 244.393C102.982 244.466 102.832 244.551 102.663 244.646C102.494 244.741 102.326 244.848 102.157 244.965C101.996 245.075 101.845 245.192 101.706 245.317C101.567 245.434 101.46 245.552 101.387 245.669H104.72V247H99.418ZM112.286 244.69C112.286 245.057 112.209 245.387 112.055 245.68C111.908 245.973 111.703 246.226 111.439 246.439C111.182 246.652 110.881 246.817 110.537 246.934C110.192 247.044 109.825 247.099 109.437 247.099C109.048 247.099 108.681 247.04 108.337 246.923C107.992 246.798 107.691 246.626 107.435 246.406C107.178 246.186 106.976 245.926 106.83 245.625C106.683 245.324 106.61 244.994 106.61 244.635C106.61 244.415 106.646 244.213 106.72 244.03C106.793 243.839 106.888 243.667 107.006 243.513C107.123 243.359 107.251 243.223 107.391 243.106C107.537 242.989 107.684 242.893 107.831 242.82C107.559 242.688 107.328 242.49 107.138 242.226C106.947 241.962 106.852 241.672 106.852 241.357C106.852 241.005 106.929 240.697 107.083 240.433C107.244 240.162 107.449 239.934 107.699 239.751C107.955 239.568 108.234 239.428 108.535 239.333C108.843 239.238 109.147 239.19 109.448 239.19C109.741 239.19 110.042 239.238 110.35 239.333C110.665 239.421 110.947 239.557 111.197 239.74C111.446 239.923 111.651 240.151 111.813 240.422C111.974 240.686 112.055 240.994 112.055 241.346C112.055 241.5 112.029 241.654 111.978 241.808C111.926 241.955 111.853 242.094 111.758 242.226C111.67 242.351 111.563 242.464 111.439 242.567C111.314 242.67 111.182 242.754 111.043 242.82C111.204 242.901 111.358 243.003 111.505 243.128C111.651 243.245 111.783 243.385 111.901 243.546C112.018 243.7 112.11 243.872 112.176 244.063C112.249 244.254 112.286 244.463 112.286 244.69ZM110.79 244.602C110.79 244.419 110.749 244.254 110.669 244.107C110.595 243.96 110.493 243.839 110.361 243.744C110.236 243.641 110.093 243.564 109.932 243.513C109.77 243.462 109.605 243.436 109.437 243.436C109.261 243.436 109.092 243.465 108.931 243.524C108.769 243.575 108.626 243.652 108.502 243.755C108.384 243.858 108.289 243.982 108.216 244.129C108.142 244.268 108.106 244.426 108.106 244.602C108.106 244.778 108.142 244.939 108.216 245.086C108.296 245.225 108.399 245.346 108.524 245.449C108.648 245.552 108.791 245.632 108.953 245.691C109.114 245.742 109.279 245.768 109.448 245.768C109.624 245.768 109.792 245.739 109.954 245.68C110.115 245.621 110.258 245.541 110.383 245.438C110.507 245.335 110.606 245.214 110.68 245.075C110.753 244.928 110.79 244.771 110.79 244.602ZM108.348 241.401C108.348 241.555 108.381 241.691 108.447 241.808C108.513 241.918 108.597 242.013 108.7 242.094C108.81 242.167 108.927 242.226 109.052 242.27C109.184 242.307 109.316 242.325 109.448 242.325C109.572 242.325 109.701 242.307 109.833 242.27C109.965 242.226 110.082 242.164 110.185 242.083C110.295 242.002 110.383 241.907 110.449 241.797C110.515 241.68 110.548 241.544 110.548 241.39C110.548 241.119 110.438 240.902 110.218 240.741C110.005 240.58 109.745 240.499 109.437 240.499C109.136 240.499 108.879 240.583 108.667 240.752C108.454 240.913 108.348 241.13 108.348 241.401Z" fill="#999999"/>
<path d="M134.418 247C134.418 246.67 134.444 246.373 134.495 246.109C134.546 245.838 134.634 245.588 134.759 245.361C134.891 245.134 135.067 244.921 135.287 244.723C135.514 244.525 135.8 244.331 136.145 244.14C136.446 243.979 136.71 243.839 136.937 243.722C137.172 243.597 137.366 243.484 137.52 243.381C137.674 243.278 137.791 243.176 137.872 243.073C137.953 242.963 137.993 242.838 137.993 242.699C137.993 242.479 137.905 242.292 137.729 242.138C137.553 241.977 137.3 241.896 136.97 241.896C136.794 241.896 136.633 241.922 136.486 241.973C136.339 242.017 136.2 242.079 136.068 242.16C135.943 242.241 135.826 242.332 135.716 242.435C135.613 242.53 135.518 242.633 135.43 242.743L134.484 241.654C134.579 241.551 134.715 241.441 134.891 241.324C135.067 241.199 135.272 241.086 135.507 240.983C135.749 240.873 136.013 240.785 136.299 240.719C136.592 240.646 136.904 240.609 137.234 240.609C137.608 240.609 137.942 240.657 138.235 240.752C138.528 240.84 138.774 240.968 138.972 241.137C139.177 241.298 139.331 241.496 139.434 241.731C139.544 241.958 139.599 242.208 139.599 242.479C139.599 242.736 139.551 242.963 139.456 243.161C139.361 243.359 139.24 243.535 139.093 243.689C138.946 243.843 138.785 243.979 138.609 244.096C138.44 244.206 138.275 244.305 138.114 244.393C137.982 244.466 137.832 244.551 137.663 244.646C137.494 244.741 137.326 244.848 137.157 244.965C136.996 245.075 136.845 245.192 136.706 245.317C136.567 245.434 136.46 245.552 136.387 245.669H139.72V247H134.418ZM141.478 243.436C141.478 243.055 141.551 242.699 141.698 242.369C141.844 242.039 142.042 241.753 142.292 241.511C142.548 241.262 142.849 241.067 143.194 240.928C143.546 240.789 143.923 240.719 144.327 240.719C144.767 240.719 145.163 240.8 145.515 240.961C145.874 241.122 146.178 241.357 146.428 241.665C146.677 241.973 146.868 242.351 147 242.798C147.139 243.238 147.209 243.74 147.209 244.305C147.209 245.016 147.135 245.647 146.989 246.197C146.849 246.74 146.648 247.194 146.384 247.561C146.127 247.935 145.812 248.217 145.438 248.408C145.064 248.599 144.646 248.694 144.184 248.694C143.692 248.694 143.238 248.588 142.82 248.375C142.402 248.162 142.05 247.858 141.764 247.462L142.611 246.538C142.787 246.817 143.014 247.033 143.293 247.187C143.571 247.341 143.876 247.418 144.206 247.418C144.697 247.418 145.086 247.224 145.372 246.835C145.665 246.446 145.819 245.896 145.834 245.185C145.687 245.449 145.471 245.658 145.185 245.812C144.899 245.966 144.569 246.043 144.195 246.043C143.806 246.043 143.447 245.977 143.117 245.845C142.787 245.713 142.501 245.53 142.259 245.295C142.017 245.06 141.826 244.785 141.687 244.47C141.547 244.147 141.478 243.803 141.478 243.436ZM144.327 241.962C144.129 241.962 143.942 242.002 143.766 242.083C143.597 242.156 143.447 242.263 143.315 242.402C143.183 242.534 143.076 242.692 142.996 242.875C142.922 243.051 142.886 243.238 142.886 243.436C142.886 243.634 142.922 243.821 142.996 243.997C143.076 244.166 143.179 244.316 143.304 244.448C143.436 244.58 143.59 244.683 143.766 244.756C143.942 244.829 144.129 244.866 144.327 244.866C144.525 244.866 144.712 244.829 144.888 244.756C145.064 244.683 145.214 244.58 145.339 244.448C145.471 244.316 145.573 244.166 145.647 243.997C145.727 243.821 145.768 243.634 145.768 243.436C145.768 243.238 145.727 243.051 145.647 242.875C145.573 242.692 145.471 242.534 145.339 242.402C145.207 242.27 145.053 242.164 144.877 242.083C144.708 242.002 144.525 241.962 144.327 241.962Z" fill="#999999"/>
<path d="M168.191 244.404C168.646 244.485 169.012 244.705 169.291 245.064C169.577 245.416 169.72 245.849 169.72 246.362C169.72 246.707 169.65 247.018 169.511 247.297C169.379 247.576 169.188 247.81 168.939 248.001C168.697 248.199 168.4 248.349 168.048 248.452C167.696 248.562 167.3 248.617 166.86 248.617C166.303 248.617 165.808 248.525 165.375 248.342C164.95 248.166 164.594 247.906 164.308 247.561L165.144 246.516C165.335 246.758 165.562 246.945 165.826 247.077C166.09 247.209 166.42 247.275 166.816 247.275C167.263 247.275 167.604 247.187 167.839 247.011C168.074 246.835 168.191 246.564 168.191 246.197C168.191 245.816 168.055 245.522 167.784 245.317C167.513 245.112 167.102 245.009 166.552 245.009H166.244V243.909H166.585C167.04 243.909 167.392 243.81 167.641 243.612C167.89 243.407 168.015 243.146 168.015 242.831C168.015 242.53 167.912 242.307 167.707 242.16C167.502 242.013 167.234 241.94 166.904 241.94C166.567 241.94 166.262 242.017 165.991 242.171C165.727 242.325 165.511 242.541 165.342 242.82L164.418 241.786C164.528 241.617 164.675 241.467 164.858 241.335C165.041 241.196 165.247 241.078 165.474 240.983C165.709 240.88 165.962 240.803 166.233 240.752C166.504 240.693 166.783 240.664 167.069 240.664C167.443 240.664 167.784 240.712 168.092 240.807C168.4 240.902 168.664 241.034 168.884 241.203C169.111 241.372 169.284 241.577 169.401 241.819C169.526 242.054 169.588 242.318 169.588 242.611C169.588 242.831 169.555 243.04 169.489 243.238C169.423 243.436 169.328 243.616 169.203 243.777C169.078 243.938 168.928 244.074 168.752 244.184C168.583 244.294 168.396 244.367 168.191 244.404ZM177.265 243.777C177.265 244.261 177.192 244.708 177.045 245.119C176.906 245.522 176.708 245.874 176.451 246.175C176.202 246.468 175.901 246.699 175.549 246.868C175.205 247.029 174.831 247.11 174.427 247.11C174.017 247.11 173.639 247.029 173.294 246.868C172.95 246.699 172.649 246.468 172.392 246.175C172.143 245.874 171.945 245.522 171.798 245.119C171.659 244.708 171.589 244.261 171.589 243.777C171.589 243.293 171.659 242.849 171.798 242.446C171.945 242.035 172.143 241.683 172.392 241.39C172.649 241.089 172.95 240.855 173.294 240.686C173.639 240.517 174.017 240.433 174.427 240.433C174.831 240.433 175.205 240.517 175.549 240.686C175.901 240.855 176.202 241.089 176.451 241.39C176.708 241.683 176.906 242.035 177.045 242.446C177.192 242.849 177.265 243.293 177.265 243.777ZM175.78 243.777C175.78 243.484 175.747 243.216 175.681 242.974C175.615 242.725 175.52 242.512 175.395 242.336C175.278 242.16 175.135 242.024 174.966 241.929C174.805 241.834 174.625 241.786 174.427 241.786C174.222 241.786 174.035 241.834 173.866 241.929C173.705 242.024 173.562 242.16 173.437 242.336C173.32 242.512 173.228 242.725 173.162 242.974C173.096 243.216 173.063 243.484 173.063 243.777C173.063 244.07 173.096 244.338 173.162 244.58C173.228 244.822 173.32 245.031 173.437 245.207C173.562 245.383 173.705 245.519 173.866 245.614C174.035 245.709 174.222 245.757 174.427 245.757C174.625 245.757 174.805 245.709 174.966 245.614C175.135 245.519 175.278 245.383 175.395 245.207C175.52 245.031 175.615 244.822 175.681 244.58C175.747 244.338 175.78 244.07 175.78 243.777Z" fill="#999999"/>
<path d="M196.191 244.404C196.646 244.485 197.012 244.705 197.291 245.064C197.577 245.416 197.72 245.849 197.72 246.362C197.72 246.707 197.65 247.018 197.511 247.297C197.379 247.576 197.188 247.81 196.939 248.001C196.697 248.199 196.4 248.349 196.048 248.452C195.696 248.562 195.3 248.617 194.86 248.617C194.303 248.617 193.808 248.525 193.375 248.342C192.95 248.166 192.594 247.906 192.308 247.561L193.144 246.516C193.335 246.758 193.562 246.945 193.826 247.077C194.09 247.209 194.42 247.275 194.816 247.275C195.263 247.275 195.604 247.187 195.839 247.011C196.074 246.835 196.191 246.564 196.191 246.197C196.191 245.816 196.055 245.522 195.784 245.317C195.513 245.112 195.102 245.009 194.552 245.009H194.244V243.909H194.585C195.04 243.909 195.392 243.81 195.641 243.612C195.89 243.407 196.015 243.146 196.015 242.831C196.015 242.53 195.912 242.307 195.707 242.16C195.502 242.013 195.234 241.94 194.904 241.94C194.567 241.94 194.262 242.017 193.991 242.171C193.727 242.325 193.511 242.541 193.342 242.82L192.418 241.786C192.528 241.617 192.675 241.467 192.858 241.335C193.041 241.196 193.247 241.078 193.474 240.983C193.709 240.88 193.962 240.803 194.233 240.752C194.504 240.693 194.783 240.664 195.069 240.664C195.443 240.664 195.784 240.712 196.092 240.807C196.4 240.902 196.664 241.034 196.884 241.203C197.111 241.372 197.284 241.577 197.401 241.819C197.526 242.054 197.588 242.318 197.588 242.611C197.588 242.831 197.555 243.04 197.489 243.238C197.423 243.436 197.328 243.616 197.203 243.777C197.078 243.938 196.928 244.074 196.752 244.184C196.583 244.294 196.396 244.367 196.191 244.404ZM204.22 245.669V247H199.754V245.669H201.316V242.336C201.25 242.424 201.144 242.516 200.997 242.611C200.858 242.699 200.704 242.783 200.535 242.864C200.367 242.945 200.191 243.011 200.007 243.062C199.831 243.113 199.674 243.139 199.534 243.139V241.764C199.666 241.764 199.828 241.724 200.018 241.643C200.209 241.555 200.396 241.452 200.579 241.335C200.763 241.218 200.92 241.104 201.052 240.994C201.192 240.877 201.28 240.785 201.316 240.719H202.823V245.669H204.22Z" fill="#999999"/>
<path d="M11.183 57V51.83L9.17 55.68H8.345L6.332 51.83V57H4.814V49.19H6.442L8.752 53.634L11.084 49.19H12.701V57H11.183ZM18.5812 57.055C18.0092 57.055 17.4886 56.945 17.0192 56.725C16.5572 56.4977 16.1576 56.2007 15.8202 55.834C15.4902 55.46 15.2336 55.0347 15.0502 54.558C14.8669 54.0813 14.7752 53.5937 14.7752 53.095C14.7752 52.5743 14.8706 52.0757 15.0612 51.599C15.2592 51.1223 15.5269 50.7007 15.8642 50.334C16.2089 49.9673 16.6159 49.6777 17.0852 49.465C17.5546 49.245 18.0642 49.135 18.6142 49.135C19.1789 49.135 19.6922 49.2523 20.1542 49.487C20.6236 49.7143 21.0232 50.015 21.3532 50.389C21.6832 50.763 21.9399 51.1883 22.1232 51.665C22.3066 52.1417 22.3982 52.6257 22.3982 53.117C22.3982 53.6377 22.3029 54.1363 22.1122 54.613C21.9216 55.0823 21.6576 55.5003 21.3202 55.867C20.9829 56.2263 20.5796 56.516 20.1102 56.736C19.6409 56.9487 19.1312 57.055 18.5812 57.055ZM16.3152 53.095C16.3152 53.4323 16.3666 53.7587 16.4692 54.074C16.5719 54.3893 16.7186 54.668 16.9092 54.91C17.1072 55.152 17.3456 55.3463 17.6242 55.493C17.9102 55.6397 18.2329 55.713 18.5922 55.713C18.9589 55.713 19.2816 55.6397 19.5602 55.493C19.8462 55.339 20.0846 55.1373 20.2752 54.888C20.4732 54.6387 20.6199 54.36 20.7152 54.052C20.8179 53.7367 20.8692 53.4177 20.8692 53.095C20.8692 52.7577 20.8142 52.4313 20.7042 52.116C20.6016 51.8007 20.4512 51.522 20.2532 51.28C20.0626 51.038 19.8242 50.8473 19.5382 50.708C19.2596 50.5613 18.9442 50.488 18.5922 50.488C18.2256 50.488 17.8992 50.565 17.6132 50.719C17.3272 50.8657 17.0889 51.0637 16.8982 51.313C16.7076 51.555 16.5609 51.8337 16.4582 52.149C16.3629 52.457 16.3152 52.7723 16.3152 53.095Z" fill="#808080"/>
<path d="M45.655 50.521H43.158V57H41.651V50.521H39.154V49.19H45.655V50.521ZM50.8412 55.713C51.2005 55.713 51.5012 55.6397 51.7432 55.493C51.9925 55.3463 52.1905 55.1557 52.3372 54.921C52.4912 54.6863 52.5975 54.4187 52.6562 54.118C52.7222 53.81 52.7552 53.4947 52.7552 53.172V49.19H54.2622V53.172C54.2622 53.7073 54.1962 54.2097 54.0642 54.679C53.9395 55.1483 53.7379 55.559 53.4592 55.911C53.1879 56.263 52.8359 56.5417 52.4032 56.747C51.9705 56.9523 51.4535 57.055 50.8522 57.055C50.2289 57.055 49.6972 56.9487 49.2572 56.736C48.8245 56.516 48.4725 56.23 48.2012 55.878C47.9299 55.5187 47.7319 55.1043 47.6072 54.635C47.4899 54.1657 47.4312 53.678 47.4312 53.172V49.19H48.9492V53.172C48.9492 53.502 48.9785 53.821 49.0372 54.129C49.1032 54.4297 49.2095 54.6973 49.3562 54.932C49.5102 55.1667 49.7082 55.3573 49.9502 55.504C50.1922 55.6433 50.4892 55.713 50.8412 55.713Z" fill="#808080"/>
<path d="M72.509 49.212H73.906L74.786 51.797L75.666 49.212H77.074L75.743 52.765L76.733 55.262L78.944 49.19H80.594L77.415 57H76.139L74.786 53.722L73.433 57H72.157L69 49.19H70.628L72.85 55.262L73.818 52.765L72.509 49.212ZM87.7337 55.669V57H82.3107V49.19H87.6347V50.521H83.8287V52.402H87.1177V53.634H83.8287V55.669H87.7337Z" fill="#808080"/>
<path d="M104.655 50.521H102.158V57H100.651V50.521H98.154V49.19H104.655V50.521ZM113.108 49.19V57H111.601V53.667H108.059V57H106.541V49.19H108.059V52.347H111.601V49.19H113.108Z" fill="#808080"/>
<path d="M133.814 57V49.19H139.061V50.521H135.332V52.534H138.434V53.766H135.332V57H133.814ZM141.047 57V49.19H144.501C144.86 49.19 145.19 49.267 145.491 49.421C145.799 49.5677 146.063 49.7657 146.283 50.015C146.503 50.257 146.675 50.5357 146.8 50.851C146.925 51.159 146.987 51.4707 146.987 51.786C146.987 52.292 146.859 52.754 146.602 53.172C146.353 53.5827 146.012 53.8797 145.579 54.063L147.361 57H145.656L144.061 54.382H142.565V57H141.047ZM142.565 53.051H144.468C144.607 53.051 144.736 53.018 144.853 52.952C144.978 52.886 145.084 52.798 145.172 52.688C145.26 52.5707 145.33 52.435 145.381 52.281C145.432 52.127 145.458 51.962 145.458 51.786C145.458 51.6027 145.429 51.434 145.37 51.28C145.311 51.126 145.231 50.994 145.128 50.884C145.033 50.7667 144.919 50.6787 144.787 50.62C144.662 50.554 144.534 50.521 144.402 50.521H142.565V53.051Z" fill="#808080"/>
<path d="M168.467 51.236C168.416 51.1847 168.32 51.115 168.181 51.027C168.049 50.939 167.884 50.8547 167.686 50.774C167.495 50.686 167.286 50.6127 167.059 50.554C166.832 50.4953 166.601 50.466 166.366 50.466C165.948 50.466 165.636 50.543 165.431 50.697C165.226 50.851 165.123 51.0673 165.123 51.346C165.123 51.5073 165.16 51.643 165.233 51.753C165.314 51.8557 165.427 51.9473 165.574 52.028C165.721 52.1087 165.904 52.182 166.124 52.248C166.351 52.314 166.612 52.3837 166.905 52.457C167.286 52.5597 167.631 52.6697 167.939 52.787C168.254 52.9043 168.518 53.051 168.731 53.227C168.951 53.403 169.12 53.6157 169.237 53.865C169.354 54.107 169.413 54.4077 169.413 54.767C169.413 55.185 169.332 55.5443 169.171 55.845C169.017 56.1383 168.804 56.3767 168.533 56.56C168.269 56.7433 167.961 56.879 167.609 56.967C167.264 57.0477 166.901 57.088 166.52 57.088C165.933 57.088 165.354 57 164.782 56.824C164.21 56.648 163.697 56.3987 163.242 56.076L163.913 54.767C163.979 54.833 164.096 54.921 164.265 55.031C164.441 55.1337 164.646 55.24 164.881 55.35C165.116 55.4527 165.376 55.5407 165.662 55.614C165.948 55.6873 166.241 55.724 166.542 55.724C167.378 55.724 167.796 55.4563 167.796 54.921C167.796 54.7523 167.748 54.6093 167.653 54.492C167.558 54.3747 167.422 54.272 167.246 54.184C167.07 54.096 166.857 54.0153 166.608 53.942C166.359 53.8687 166.08 53.788 165.772 53.7C165.398 53.5973 165.072 53.4873 164.793 53.37C164.522 53.2453 164.294 53.1023 164.111 52.941C163.928 52.7723 163.788 52.5817 163.693 52.369C163.605 52.149 163.561 51.8887 163.561 51.588C163.561 51.192 163.634 50.84 163.781 50.532C163.928 50.224 164.129 49.9673 164.386 49.762C164.65 49.5567 164.954 49.4027 165.299 49.3C165.644 49.19 166.014 49.135 166.41 49.135C166.96 49.135 167.466 49.223 167.928 49.399C168.39 49.5677 168.793 49.7693 169.138 50.004L168.467 51.236ZM173.57 49.19H174.912L177.882 57H176.32L175.594 55.053H172.866L172.151 57H170.589L173.57 49.19ZM175.319 53.986L174.241 50.917L173.119 53.986H175.319Z" fill="#808080"/>
<path d="M196.467 51.236C196.416 51.1847 196.32 51.115 196.181 51.027C196.049 50.939 195.884 50.8547 195.686 50.774C195.495 50.686 195.286 50.6127 195.059 50.554C194.832 50.4953 194.601 50.466 194.366 50.466C193.948 50.466 193.636 50.543 193.431 50.697C193.226 50.851 193.123 51.0673 193.123 51.346C193.123 51.5073 193.16 51.643 193.233 51.753C193.314 51.8557 193.427 51.9473 193.574 52.028C193.721 52.1087 193.904 52.182 194.124 52.248C194.351 52.314 194.612 52.3837 194.905 52.457C195.286 52.5597 195.631 52.6697 195.939 52.787C196.254 52.9043 196.518 53.051 196.731 53.227C196.951 53.403 197.12 53.6157 197.237 53.865C197.354 54.107 197.413 54.4077 197.413 54.767C197.413 55.185 197.332 55.5443 197.171 55.845C197.017 56.1383 196.804 56.3767 196.533 56.56C196.269 56.7433 195.961 56.879 195.609 56.967C195.264 57.0477 194.901 57.088 194.52 57.088C193.933 57.088 193.354 57 192.782 56.824C192.21 56.648 191.697 56.3987 191.242 56.076L191.913 54.767C191.979 54.833 192.096 54.921 192.265 55.031C192.441 55.1337 192.646 55.24 192.881 55.35C193.116 55.4527 193.376 55.5407 193.662 55.614C193.948 55.6873 194.241 55.724 194.542 55.724C195.378 55.724 195.796 55.4563 195.796 54.921C195.796 54.7523 195.748 54.6093 195.653 54.492C195.558 54.3747 195.422 54.272 195.246 54.184C195.07 54.096 194.857 54.0153 194.608 53.942C194.359 53.8687 194.08 53.788 193.772 53.7C193.398 53.5973 193.072 53.4873 192.793 53.37C192.522 53.2453 192.294 53.1023 192.111 52.941C191.928 52.7723 191.788 52.5817 191.693 52.369C191.605 52.149 191.561 51.8887 191.561 51.588C191.561 51.192 191.634 50.84 191.781 50.532C191.928 50.224 192.129 49.9673 192.386 49.762C192.65 49.5567 192.954 49.4027 193.299 49.3C193.644 49.19 194.014 49.135 194.41 49.135C194.96 49.135 195.466 49.223 195.928 49.399C196.39 49.5677 196.793 49.7693 197.138 50.004L196.467 51.236ZM202.777 55.713C203.136 55.713 203.437 55.6397 203.679 55.493C203.928 55.3463 204.126 55.1557 204.273 54.921C204.427 54.6863 204.533 54.4187 204.592 54.118C204.658 53.81 204.691 53.4947 204.691 53.172V49.19H206.198V53.172C206.198 53.7073 206.132 54.2097 206 54.679C205.875 55.1483 205.673 55.559 205.395 55.911C205.123 56.263 204.771 56.5417 204.339 56.747C203.906 56.9523 203.389 57.055 202.788 57.055C202.164 57.055 201.633 56.9487 201.193 56.736C200.76 56.516 200.408 56.23 200.137 55.878C199.865 55.5187 199.667 55.1043 199.543 54.635C199.425 54.1657 199.367 53.678 199.367 53.172V49.19H200.885V53.172C200.885 53.502 200.914 53.821 200.973 54.129C201.039 54.4297 201.145 54.6973 201.292 54.932C201.446 55.1667 201.644 55.3573 201.886 55.504C202.128 55.6433 202.425 55.713 202.777 55.713Z" fill="#808080"/>
<g filter="url(#filter0_d)">
<path d="M12.3012 14V8.36L10.1052 12.56H9.20523L7.00923 8.36V14H5.35323V5.48H7.12923L9.64923 10.328L12.1932 5.48H13.9572V14H12.3012ZM18.76 5.48H20.224L23.464 14H21.76L20.968 11.876H17.992L17.212 14H15.508L18.76 5.48ZM20.668 10.712L19.492 7.364L18.268 10.712H20.668ZM24.9985 14V5.48H28.7665C29.1585 5.48 29.5185 5.564 29.8465 5.732C30.1825 5.892 30.4705 6.108 30.7105 6.38C30.9505 6.644 31.1385 6.948 31.2745 7.292C31.4105 7.628 31.4785 7.968 31.4785 8.312C31.4785 8.864 31.3385 9.368 31.0585 9.824C30.7865 10.272 30.4145 10.596 29.9425 10.796L31.8865 14H30.0265L28.2865 11.144H26.6545V14H24.9985ZM26.6545 9.692H28.7305C28.8825 9.692 29.0225 9.656 29.1505 9.584C29.2865 9.512 29.4025 9.416 29.4985 9.296C29.5945 9.168 29.6705 9.02 29.7265 8.852C29.7825 8.684 29.8105 8.504 29.8105 8.312C29.8105 8.112 29.7785 7.928 29.7145 7.76C29.6505 7.592 29.5625 7.448 29.4505 7.328C29.3465 7.2 29.2225 7.104 29.0785 7.04C28.9425 6.968 28.8025 6.932 28.6585 6.932H26.6545V9.692ZM33.063 9.68C33.063 9.16 33.155 8.648 33.339 8.144C33.531 7.632 33.807 7.176 34.167 6.776C34.527 6.376 34.967 6.052 35.487 5.804C36.007 5.556 36.599 5.432 37.263 5.432C38.047 5.432 38.723 5.604 39.291 5.948C39.867 6.292 40.295 6.74 40.575 7.292L39.303 8.168C39.191 7.928 39.055 7.728 38.895 7.568C38.735 7.4 38.563 7.268 38.379 7.172C38.195 7.076 38.003 7.008 37.803 6.968C37.603 6.92 37.407 6.896 37.215 6.896C36.799 6.896 36.435 6.98 36.123 7.148C35.819 7.316 35.563 7.536 35.355 7.808C35.155 8.072 35.003 8.376 34.899 8.72C34.795 9.056 34.743 9.392 34.743 9.728C34.743 10.104 34.803 10.468 34.923 10.82C35.043 11.164 35.211 11.468 35.427 11.732C35.651 11.996 35.915 12.208 36.219 12.368C36.531 12.528 36.871 12.608 37.239 12.608C37.431 12.608 37.631 12.584 37.839 12.536C38.047 12.488 38.243 12.412 38.427 12.308C38.619 12.204 38.795 12.072 38.955 11.912C39.115 11.744 39.243 11.544 39.339 11.312L40.695 12.092C40.559 12.412 40.363 12.696 40.107 12.944C39.859 13.184 39.575 13.388 39.255 13.556C38.943 13.724 38.607 13.852 38.247 13.94C37.887 14.028 37.535 14.072 37.191 14.072C36.583 14.072 36.027 13.944 35.523 13.688C35.019 13.432 34.583 13.1 34.215 12.692C33.855 12.276 33.571 11.808 33.363 11.288C33.163 10.76 33.063 10.224 33.063 9.68ZM49.5696 5.48V14H47.9256V10.364H44.0616V14H42.4056V5.48H44.0616V8.924H47.9256V5.48H49.5696ZM61.3218 10.484C61.3218 11.012 61.2418 11.5 61.0818 11.948C60.9298 12.388 60.7138 12.772 60.4338 13.1C60.1618 13.42 59.8338 13.672 59.4498 13.856C59.0738 14.032 58.6658 14.12 58.2258 14.12C57.7778 14.12 57.3658 14.032 56.9898 13.856C56.6138 13.672 56.2858 13.42 56.0058 13.1C55.7338 12.772 55.5178 12.388 55.3578 11.948C55.2058 11.5 55.1298 11.012 55.1298 10.484C55.1298 9.956 55.2058 9.472 55.3578 9.032C55.5178 8.584 55.7338 8.2 56.0058 7.88C56.2858 7.552 56.6138 7.296 56.9898 7.112C57.3658 6.928 57.7778 6.836 58.2258 6.836C58.6658 6.836 59.0738 6.928 59.4498 7.112C59.8338 7.296 60.1618 7.552 60.4338 7.88C60.7138 8.2 60.9298 8.584 61.0818 9.032C61.2418 9.472 61.3218 9.956 61.3218 10.484ZM59.7018 10.484C59.7018 10.164 59.6658 9.872 59.5938 9.608C59.5218 9.336 59.4178 9.104 59.2818 8.912C59.1538 8.72 58.9978 8.572 58.8138 8.468C58.6378 8.364 58.4418 8.312 58.2258 8.312C58.0018 8.312 57.7978 8.364 57.6138 8.468C57.4378 8.572 57.2818 8.72 57.1458 8.912C57.0178 9.104 56.9178 9.336 56.8458 9.608C56.7738 9.872 56.7378 10.164 56.7378 10.484C56.7378 10.804 56.7738 11.096 56.8458 11.36C56.9178 11.624 57.0178 11.852 57.1458 12.044C57.2818 12.236 57.4378 12.384 57.6138 12.488C57.7978 12.592 58.0018 12.644 58.2258 12.644C58.4418 12.644 58.6378 12.592 58.8138 12.488C58.9978 12.384 59.1538 12.236 59.2818 12.044C59.4178 11.852 59.5218 11.624 59.5938 11.36C59.6658 11.096 59.7018 10.804 59.7018 10.484ZM66.4202 8.468H62.5442V7.004H68.9522L64.7282 15.524H62.9042L66.4202 8.468Z" fill="#444444"/>
</g>
<g filter="url(#filter1_d)">
<path d="M118.111 14C118.111 13.64 118.139 13.316 118.195 13.028C118.251 12.732 118.347 12.46 118.483 12.212C118.627 11.964 118.819 11.732 119.059 11.516C119.307 11.3 119.619 11.088 119.995 10.88C120.323 10.704 120.611 10.552 120.859 10.424C121.115 10.288 121.327 10.164 121.495 10.052C121.663 9.94 121.791 9.828 121.879 9.716C121.967 9.596 122.011 9.46 122.011 9.308C122.011 9.068 121.915 8.864 121.723 8.696C121.531 8.52 121.255 8.432 120.895 8.432C120.703 8.432 120.527 8.46 120.367 8.516C120.207 8.564 120.055 8.632 119.911 8.72C119.775 8.808 119.647 8.908 119.527 9.02C119.415 9.124 119.311 9.236 119.215 9.356L118.183 8.168C118.287 8.056 118.435 7.936 118.627 7.808C118.819 7.672 119.043 7.548 119.299 7.436C119.563 7.316 119.851 7.22 120.163 7.148C120.483 7.068 120.823 7.028 121.183 7.028C121.591 7.028 121.955 7.08 122.275 7.184C122.595 7.28 122.863 7.42 123.079 7.604C123.303 7.78 123.471 7.996 123.583 8.252C123.703 8.5 123.763 8.772 123.763 9.068C123.763 9.348 123.711 9.596 123.607 9.812C123.503 10.028 123.371 10.22 123.211 10.388C123.051 10.556 122.875 10.704 122.683 10.832C122.499 10.952 122.319 11.06 122.143 11.156C121.999 11.236 121.835 11.328 121.651 11.432C121.467 11.536 121.283 11.652 121.099 11.78C120.923 11.9 120.759 12.028 120.607 12.164C120.455 12.292 120.339 12.42 120.259 12.548H123.895V14H118.111ZM131.809 10.484C131.809 11.012 131.729 11.5 131.569 11.948C131.417 12.388 131.201 12.772 130.921 13.1C130.649 13.42 130.321 13.672 129.937 13.856C129.561 14.032 129.153 14.12 128.713 14.12C128.265 14.12 127.853 14.032 127.477 13.856C127.101 13.672 126.773 13.42 126.493 13.1C126.221 12.772 126.005 12.388 125.845 11.948C125.693 11.5 125.617 11.012 125.617 10.484C125.617 9.956 125.693 9.472 125.845 9.032C126.005 8.584 126.221 8.2 126.493 7.88C126.773 7.552 127.101 7.296 127.477 7.112C127.853 6.928 128.265 6.836 128.713 6.836C129.153 6.836 129.561 6.928 129.937 7.112C130.321 7.296 130.649 7.552 130.921 7.88C131.201 8.2 131.417 8.584 131.569 9.032C131.729 9.472 131.809 9.956 131.809 10.484ZM130.189 10.484C130.189 10.164 130.153 9.872 130.081 9.608C130.009 9.336 129.905 9.104 129.769 8.912C129.641 8.72 129.485 8.572 129.301 8.468C129.125 8.364 128.929 8.312 128.713 8.312C128.489 8.312 128.285 8.364 128.101 8.468C127.925 8.572 127.769 8.72 127.633 8.912C127.505 9.104 127.405 9.336 127.333 9.608C127.261 9.872 127.225 10.164 127.225 10.484C127.225 10.804 127.261 11.096 127.333 11.36C127.405 11.624 127.505 11.852 127.633 12.044C127.769 12.236 127.925 12.384 128.101 12.488C128.285 12.592 128.489 12.644 128.713 12.644C128.929 12.644 129.125 12.592 129.301 12.488C129.485 12.384 129.641 12.236 129.769 12.044C129.905 11.852 130.009 11.624 130.081 11.36C130.153 11.096 130.189 10.804 130.189 10.484ZM133.456 14C133.456 13.64 133.484 13.316 133.54 13.028C133.596 12.732 133.692 12.46 133.828 12.212C133.972 11.964 134.164 11.732 134.404 11.516C134.652 11.3 134.964 11.088 135.34 10.88C135.668 10.704 135.956 10.552 136.204 10.424C136.46 10.288 136.672 10.164 136.84 10.052C137.008 9.94 137.136 9.828 137.224 9.716C137.312 9.596 137.356 9.46 137.356 9.308C137.356 9.068 137.26 8.864 137.068 8.696C136.876 8.52 136.6 8.432 136.24 8.432C136.048 8.432 135.872 8.46 135.712 8.516C135.552 8.564 135.4 8.632 135.256 8.72C135.12 8.808 134.992 8.908 134.872 9.02C134.76 9.124 134.656 9.236 134.56 9.356L133.528 8.168C133.632 8.056 133.78 7.936 133.972 7.808C134.164 7.672 134.388 7.548 134.644 7.436C134.908 7.316 135.196 7.22 135.508 7.148C135.828 7.068 136.168 7.028 136.528 7.028C136.936 7.028 137.3 7.08 137.62 7.184C137.94 7.28 138.208 7.42 138.424 7.604C138.648 7.78 138.816 7.996 138.928 8.252C139.048 8.5 139.108 8.772 139.108 9.068C139.108 9.348 139.056 9.596 138.952 9.812C138.848 10.028 138.716 10.22 138.556 10.388C138.396 10.556 138.22 10.704 138.028 10.832C137.844 10.952 137.664 11.06 137.488 11.156C137.344 11.236 137.18 11.328 136.996 11.432C136.812 11.536 136.628 11.652 136.444 11.78C136.268 11.9 136.104 12.028 135.952 12.164C135.8 12.292 135.684 12.42 135.604 12.548H139.24V14H133.456ZM147.153 10.484C147.153 11.012 147.073 11.5 146.913 11.948C146.761 12.388 146.545 12.772 146.265 13.1C145.993 13.42 145.665 13.672 145.281 13.856C144.905 14.032 144.497 14.12 144.057 14.12C143.609 14.12 143.197 14.032 142.821 13.856C142.445 13.672 142.117 13.42 141.837 13.1C141.565 12.772 141.349 12.388 141.189 11.948C141.037 11.5 140.961 11.012 140.961 10.484C140.961 9.956 141.037 9.472 141.189 9.032C141.349 8.584 141.565 8.2 141.837 7.88C142.117 7.552 142.445 7.296 142.821 7.112C143.197 6.928 143.609 6.836 144.057 6.836C144.497 6.836 144.905 6.928 145.281 7.112C145.665 7.296 145.993 7.552 146.265 7.88C146.545 8.2 146.761 8.584 146.913 9.032C147.073 9.472 147.153 9.956 147.153 10.484ZM145.533 10.484C145.533 10.164 145.497 9.872 145.425 9.608C145.353 9.336 145.249 9.104 145.113 8.912C144.985 8.72 144.829 8.572 144.645 8.468C144.469 8.364 144.273 8.312 144.057 8.312C143.833 8.312 143.629 8.364 143.445 8.468C143.269 8.572 143.113 8.72 142.977 8.912C142.849 9.104 142.749 9.336 142.677 9.608C142.605 9.872 142.569 10.164 142.569 10.484C142.569 10.804 142.605 11.096 142.677 11.36C142.749 11.624 142.849 11.852 142.977 12.044C143.113 12.236 143.269 12.384 143.445 12.488C143.629 12.592 143.833 12.644 144.057 12.644C144.273 12.644 144.469 12.592 144.645 12.488C144.829 12.384 144.985 12.236 145.113 12.044C145.249 11.852 145.353 11.624 145.425 11.36C145.497 11.096 145.533 10.804 145.533 10.484Z" fill="#444444"/>
</g>
<line x1="95.5" y1="1" x2="95.5" y2="19" stroke="#DDD9DA"/>
<defs>
<filter id="filter0_d" x="0.35321" y="0.432007" width="73.599" height="20.092" filterUnits="userSpaceOnUse" color-interpolation-filters="sRGB">
<feFlood flood-opacity="0" result="BackgroundImageFix"/>
<feColorMatrix in="SourceAlpha" type="matrix" values="0 0 0 0 0 0 0 0 0 0 0 0 0 0 0 0 0 0 127 0"/>
<feOffset/>
<feGaussianBlur stdDeviation="2.5"/>
<feColorMatrix type="matrix" values="0 0 0 0 0.902702 0 0 0 0 0.902702 0 0 0 0 0.902702 0 0 0 1 0"/>
<feBlend mode="normal" in2="BackgroundImageFix" result="effect1_dropShadow"/>
<feBlend mode="normal" in="SourceGraphic" in2="effect1_dropShadow" result="shape"/>
</filter>
<filter id="filter1_d" x="113.111" y="1.836" width="39.042" height="17.284" filterUnits="userSpaceOnUse" color-interpolation-filters="sRGB">
<feFlood flood-opacity="0" result="BackgroundImageFix"/>
<feColorMatrix in="SourceAlpha" type="matrix" values="0 0 0 0 0 0 0 0 0 0 0 0 0 0 0 0 0 0 127 0"/>
<feOffset/>
<feGaussianBlur stdDeviation="2.5"/>
<feColorMatrix type="matrix" values="0 0 0 0 0.902702 0 0 0 0 0.902702 0 0 0 0 0.902702 0 0 0 1 0"/>
<feBlend mode="normal" in2="BackgroundImageFix" result="effect1_dropShadow"/>
<feBlend mode="normal" in="SourceGraphic" in2="effect1_dropShadow" result="shape"/>
</filter>
<clipPath id="clip0">
<rect width="197" height="14" fill="white" transform="translate(7 158)"/>
</clipPath>
</defs>
</svg>
