<svg width="18" height="20" viewBox="0 0 18 20" fill="none" xmlns="http://www.w3.org/2000/svg">
<path d="M5.30566 9.16663H6.79038V10.8333H5.30566V9.16663ZM5.30566 12.5H6.79038V14.1666H5.30566V12.5ZM8.2751 9.16663H9.75981V10.8333H8.2751V9.16663ZM8.2751 12.5H9.75981V14.1666H8.2751V12.5ZM11.2445 9.16663H12.7292V10.8333H11.2445V9.16663ZM11.2445 12.5H12.7292V14.1666H11.2445V12.5Z" fill="#808FA3"/>
<path d="M3.82114 18.3333H14.2142C15.033 18.3333 15.6989 17.5858 15.6989 16.6666V4.99996C15.6989 4.08079 15.033 3.33329 14.2142 3.33329H12.7294V1.66663H11.2447V3.33329H6.79057V1.66663H5.30586V3.33329H3.82114C3.00232 3.33329 2.33643 4.08079 2.33643 4.99996V16.6666C2.33643 17.5858 3.00232 18.3333 3.82114 18.3333ZM14.2142 6.66663L14.2149 16.6666H3.82114V6.66663H14.2142Z" fill="#808FA3"/>
<ellipse cx="15.2535" cy="17" rx="2.67249" ry="3" fill="#97C66B"/>
</svg>
