<svg width="32" height="33" viewBox="0 0 32 33" fill="none" xmlns="http://www.w3.org/2000/svg">
<path fill-rule="evenodd" clip-rule="evenodd" d="M20.2497 18.545C19.9451 18.1614 19.4506 17.6057 19.0273 17.5531C18.7697 17.521 18.4737 17.7345 18.1819 17.9359C18.125 17.9643 17.6853 18.2262 17.6319 18.2418C17.3502 18.3222 16.7489 18.3457 16.3853 18.0141C16.0352 17.694 15.4816 17.1012 15.0348 16.5583C14.6079 15.9991 14.1603 15.3267 13.9312 14.914C13.6921 14.4863 13.8643 13.9206 14.0123 13.6716C14.0393 13.6268 14.3667 13.2902 14.4399 13.2119L14.4506 13.2248C14.7217 12.9971 15.0056 12.7658 15.0376 12.5153C15.0903 12.0984 14.6641 11.4914 14.3595 11.1072C14.055 10.7223 13.5832 10.0484 12.9407 10.1438C12.6988 10.1794 12.4903 10.264 12.2847 10.3857L12.279 10.3793C12.2675 10.3879 12.2561 10.3967 12.2448 10.4056L12.227 10.4149L12.2292 10.4177C12.1111 10.5088 11.7738 10.7607 11.7354 10.7948C11.3184 11.1656 10.6908 12.0386 11.1761 13.609C11.5361 14.7759 12.3039 16.1463 13.3499 17.5324L13.3442 17.5374C13.3954 17.6043 13.4481 17.6648 13.5014 17.7295C13.5512 17.7957 13.6003 17.8612 13.6516 17.9266L13.6587 17.9216C14.7687 19.2586 15.9328 20.3274 16.9951 20.9578C18.4253 21.806 19.4421 21.4239 19.9117 21.12C19.9558 21.0909 20.2917 20.8297 20.4055 20.7436L20.4084 20.7465C20.4126 20.7422 20.4155 20.7365 20.4212 20.7322C20.4314 20.7245 20.4416 20.7167 20.4518 20.7088L20.4475 20.7031C20.6197 20.5366 20.7577 20.3587 20.8531 20.1345C21.1028 19.5447 20.5542 18.9299 20.2497 18.545Z" fill="#808FA3"/>
<circle cx="15.8173" cy="16.3173" r="15.4808" stroke="#E9EFF4" stroke-width="0.673077"/>
</svg>
