<svg width="30" height="28" viewBox="0 0 30 28" fill="none" xmlns="http://www.w3.org/2000/svg">
<g clip-path="url(#clip0)">
<rect x="0.034668" width="28" height="27.7541" rx="2" fill="#4DA1FF" fill-opacity="0.1"/>
<path fill-rule="evenodd" clip-rule="evenodd" d="M16.1595 9.10462V11.021H18.0929L16.1595 9.10462ZM15.4609 11.021V8.9438H10.9204C10.7276 8.9438 10.5711 9.09873 10.5711 9.29035V18.2912C10.5711 18.483 10.7276 18.6375 10.9204 18.6375H17.9058C18.0986 18.6375 18.2551 18.483 18.2551 18.2912V11.714H16.1595H15.4609V11.021ZM18.9536 11.0221V11.0222V18.9839C18.9536 19.1754 18.7972 19.3301 18.6044 19.3301H10.2218C10.029 19.3301 9.87256 19.1754 9.87256 18.9839V8.59794C9.87256 8.40615 10.029 8.25122 10.2218 8.25122H16.1595V8.25243V8.25226L18.9526 11.021H18.9536V11.0221Z" fill="#4DA1FF"/>
</g>
<defs>
<clipPath id="clip0">
<rect width="28.9722" height="28" fill="white" transform="translate(0.034668)"/>
</clipPath>
</defs>
</svg>
