<svg width="16" height="16" viewBox="0 0 16 16" fill="none" xmlns="http://www.w3.org/2000/svg">
<path d="M15 16H1C0.71875 16 0.481771 15.901 0.289062 15.7031C0.0963542 15.5052 0 15.2708 0 15V11C0 10.7188 0.0963542 10.4818 0.289062 10.2891C0.481771 10.0964 0.71875 10 1 10H3C3.20833 10 3.40885 10.0443 3.60156 10.1328C3.79427 10.2214 3.92708 10.3438 4 10.5L4.52344 12.0703L5 13.5C5.08333 13.7083 5.20833 13.8438 5.375 13.9062C5.54167 13.9688 5.77604 14 6.07812 14H9.96875C10.2708 14 10.4974 13.9688 10.6484 13.9062C10.7995 13.8438 10.9167 13.7083 11 13.5C11.5312 11.8958 11.8646 10.8958 12 10.5C12.1354 10.1667 12.4688 10 13 10H15C15.2708 10 15.5052 10.0964 15.7031 10.2891C15.901 10.4818 16 10.7188 16 11V15C16 15.2708 15.9036 15.5052 15.7109 15.7031C15.5182 15.901 15.2812 16 15 16ZM10.25 12.2031C10.1562 12.4219 9.98698 12.6094 9.74219 12.7656C9.4974 12.9219 9.23958 13 8.96875 13H7.07812C6.80729 13 6.54688 12.9219 6.29688 12.7656C6.04688 12.6094 5.875 12.4219 5.78125 12.2031L4.67188 9H1V1C1 0.71875 1.09635 0.481771 1.28906 0.289062C1.48177 0.0963542 1.71875 0 2 0H14C14.2812 0 14.5182 0.0963542 14.7109 0.289062C14.9036 0.481771 15 0.71875 15 1V9H11.3281L10.25 12.2031ZM3.5 7H5.5C5.63542 7 5.7526 6.95052 5.85156 6.85156C5.95052 6.7526 6 6.63542 6 6.5C6 6.36458 5.95052 6.2474 5.85156 6.14844C5.7526 6.04948 5.63542 6 5.5 6H3.5C3.36458 6 3.2474 6.04948 3.14844 6.14844C3.04948 6.2474 3 6.36458 3 6.5C3 6.63542 3.04948 6.7526 3.14844 6.85156C3.2474 6.95052 3.36458 7 3.5 7ZM7.5 3H3.5C3.36458 3 3.2474 3.04948 3.14844 3.14844C3.04948 3.2474 3 3.36458 3 3.5C3 3.63542 3.04948 3.7526 3.14844 3.85156C3.2474 3.95052 3.36458 4 3.5 4H7.5C7.63542 4 7.7526 3.95052 7.85156 3.85156C7.95052 3.7526 8 3.63542 8 3.5C8 3.36458 7.95052 3.2474 7.85156 3.14844C7.7526 3.04948 7.63542 3 7.5 3ZM12.5 3H9.5C9.36458 3 9.2474 3.04948 9.14844 3.14844C9.04948 3.2474 9 3.36458 9 3.5C9 3.63542 9.04948 3.7526 9.14844 3.85156C9.2474 3.95052 9.36458 4 9.5 4H12.5C12.6354 4 12.7526 3.95052 12.8516 3.85156C12.9505 3.7526 13 3.63542 13 3.5C13 3.36458 12.9505 3.2474 12.8516 3.14844C12.7526 3.04948 12.6354 3 12.5 3ZM13 6.5C13 6.36458 12.9505 6.2474 12.8516 6.14844C12.7526 6.04948 12.6354 6 12.5 6H7.5C7.36458 6 7.2474 6.04948 7.14844 6.14844C7.04948 6.2474 7 6.36458 7 6.5C7 6.63542 7.04948 6.7526 7.14844 6.85156C7.2474 6.95052 7.36458 7 7.5 7H12.5C12.6354 7 12.7526 6.95052 12.8516 6.85156C12.9505 6.7526 13 6.63542 13 6.5Z" fill="#cfcfcf"/>
</svg>
