<svg width="19" height="18" viewBox="0 0 19 18" fill="none" xmlns="http://www.w3.org/2000/svg">
<path d="M18.4124 7.32974L18.4078 7.31102L15.7892 0.636703C15.6725 0.259795 15.3247 -6.10352e-05 14.9303 -6.10352e-05H4.31579C3.91903 -6.10352e-05 3.56661 0.264477 3.45459 0.646067L1.00634 7.25249L0.99934 7.26888L0.994672 7.28761C0.964332 7.40232 0.954996 7.51937 0.971333 7.63408C0.969 7.67154 0.966666 7.70899 0.966666 7.74645V16.3123C0.967283 16.6896 1.11698 17.0513 1.38296 17.3181C1.64894 17.5849 2.00951 17.7351 2.38567 17.7357H17.0238C17.8056 17.7357 18.4428 17.0966 18.4451 16.3123V7.74645C18.4451 7.71602 18.4451 7.68558 18.4428 7.65983C18.4521 7.54512 18.4428 7.43509 18.4124 7.32974ZM11.5088 6.3231L11.5018 6.69064C11.4831 7.74177 10.7596 8.44876 9.70239 8.44876C9.1866 8.44876 8.74317 8.28255 8.42342 7.96651C8.10368 7.65047 7.92864 7.21035 7.91931 6.69064L7.9123 6.3231H3.10917L4.96461 1.79786H14.2815L16.1883 6.3231H11.5088ZM2.75675 8.12102H6.42795C6.99509 9.45775 8.2017 10.2467 9.70473 10.2467C10.4912 10.2467 11.2218 10.0266 11.8122 9.60992C12.3303 9.24472 12.7341 8.73437 12.9955 8.12102H16.648V15.9378H2.75675V8.12102Z" fill="#444444"/>
</svg>
