<svg width="18" height="18" viewBox="0 0 18 18" fill="none" xmlns="http://www.w3.org/2000/svg">
<path d="M17.1878 7.16834L17.1832 7.15002L14.6144 0.622737C14.5 0.254131 14.1588 0 13.7719 0H3.35939C2.97018 0 2.62447 0.258711 2.51457 0.631895L0.112916 7.09279L0.106047 7.10881L0.101468 7.12713C0.0717051 7.23931 0.0625472 7.35379 0.0785735 7.46597C0.076284 7.5026 0.0739946 7.53924 0.0739946 7.57587V15.953C0.0746 16.322 0.221451 16.6758 0.48237 16.9367C0.74329 17.1976 1.097 17.3444 1.46599 17.345H15.8256C16.5925 17.345 17.2176 16.72 17.2199 15.953V7.57587C17.2199 7.5461 17.2199 7.51634 17.2176 7.49116C17.2267 7.37897 17.2176 7.27137 17.1878 7.16834ZM10.4155 6.18387L10.4087 6.54331C10.3904 7.57129 9.68062 8.26271 8.64349 8.26271C8.13752 8.26271 7.70252 8.10016 7.38886 7.79108C7.0752 7.482 6.90349 7.05158 6.89433 6.54331L6.88747 6.18387H2.17573L3.99586 1.75832H13.1354L15.0059 6.18387H10.4155ZM1.83002 7.94218H5.43136C5.9877 9.24947 7.17136 10.021 8.64578 10.021C9.41733 10.021 10.1339 9.80581 10.7132 9.39829C11.2214 9.04113 11.6175 8.54203 11.8739 7.94218H15.457V15.5867H1.83002V7.94218Z" fill="#4DA1FF"/>
</svg>
