<svg width="12" height="16" viewBox="0 0 12 16" fill="none" xmlns="http://www.w3.org/2000/svg">
<path d="M5.80275 3.66938C5.38056 3.66938 4.96785 3.79457 4.61681 4.02913C4.26578 4.26369 3.99218 4.59707 3.83061 4.98712C3.66905 5.37717 3.62677 5.80637 3.70914 6.22045C3.7915 6.63453 3.99481 7.01488 4.29334 7.31342C4.59187 7.61195 4.97223 7.81525 5.3863 7.89762C5.80038 7.97998 6.22958 7.93771 6.61963 7.77614C7.00969 7.61458 7.34307 7.34098 7.57763 6.98994C7.81218 6.6389 7.93738 6.2262 7.93738 5.80401C7.93662 5.2381 7.71148 4.69559 7.31133 4.29543C6.91117 3.89527 6.36866 3.67013 5.80275 3.66938ZM5.80275 6.87132C5.59165 6.87132 5.3853 6.80872 5.20978 6.69145C5.03426 6.57417 4.89746 6.40748 4.81668 6.21245C4.7359 6.01742 4.71476 5.80282 4.75594 5.59578C4.79713 5.38875 4.89878 5.19857 5.04804 5.0493C5.19731 4.90004 5.38749 4.79838 5.59453 4.7572C5.80157 4.71602 6.01617 4.73716 6.21119 4.81794C6.40622 4.89872 6.57291 5.03552 6.69019 5.21104C6.80747 5.38656 6.87006 5.59291 6.87006 5.80401C6.86969 6.08696 6.75712 6.35822 6.55704 6.5583C6.35696 6.75837 6.0857 6.87094 5.80275 6.87132Z" fill="#444444"/>
<path d="M11.5719 5.19853C11.2567 2.26484 8.79407 5.99016e-08 5.80204 5.99016e-08C4.75503 -0.000150377 3.72749 0.283059 2.8284 0.819595C1.92932 1.35613 1.19219 2.12599 0.695205 3.04753C0.198217 3.96907 -0.0401061 5.00793 0.00550936 6.05395C0.0511248 7.09996 0.378978 8.11413 0.954301 8.98891L0.940782 8.96685L4.9738 15.158C5.06348 15.2952 5.18585 15.4079 5.32991 15.4861C5.47397 15.5643 5.6352 15.6054 5.79911 15.6059C5.96301 15.6063 6.12445 15.566 6.26891 15.4885C6.41337 15.4111 6.53632 15.299 6.62671 15.1622L6.62885 15.1587L10.6619 8.96756C11.2782 8.0252 11.6049 6.92294 11.6018 5.79693C11.6018 5.58632 11.5904 5.37855 11.5691 5.17362L11.5712 5.19924L11.5719 5.19853ZM9.76888 8.3841L5.80275 14.4728L1.83661 8.3841C1.24812 7.47312 0.988663 6.38836 1.10125 5.30969C1.21385 4.23101 1.69172 3.22322 2.45565 2.4534C3.31235 1.5967 4.49565 1.0666 5.80275 1.0666C7.10985 1.0666 8.29315 1.5967 9.14984 2.4534C9.91377 3.22322 10.3917 4.23101 10.5042 5.30969C10.6168 6.38836 10.3574 7.47312 9.76888 8.3841Z" fill="#444444"/>
</svg>
