<svg width="10" height="11" viewBox="0 0 10 11" fill="none" xmlns="http://www.w3.org/2000/svg">
<g opacity="0.74" clip-path="url(#clip0)">
<path fill-rule="evenodd" clip-rule="evenodd" d="M0.694716 5.01742L8.07667 8.16035L8.91356 1.14913L0.694716 5.01742ZM8.25098 8.64833C8.22193 8.64833 8.19309 8.64241 8.16611 8.63115L0.122819 5.20661C0.0495679 5.1754 0.00163316 5.10648 -2.69158e-05 5.03006C-0.00147948 4.95363 0.0435502 4.88313 0.115556 4.84916L9.07085 0.634685C9.13871 0.602693 9.21984 0.60842 9.2821 0.650089C9.34435 0.69156 9.37755 0.762062 9.36904 0.833945L8.45704 8.47317C8.44957 8.53557 8.41118 8.59126 8.3537 8.62227C8.32195 8.63964 8.28647 8.64833 8.25098 8.64833Z" fill="#4DA1FF"/>
<path d="M0.694716 5.01742L0.630839 4.8817L0.327909 5.02428L0.635956 5.15543L0.694716 5.01742ZM8.07667 8.16035L8.01791 8.29837L8.20191 8.37671L8.22562 8.17813L8.07667 8.16035ZM8.91356 1.14913L9.0625 1.16691L9.09458 0.898143L8.84968 1.01341L8.91356 1.14913ZM8.16611 8.63115L8.10735 8.76917L8.10835 8.76958L8.16611 8.63115ZM0.122819 5.20661L0.0640352 5.34461L0.0640585 5.34462L0.122819 5.20661ZM-2.69158e-05 5.03006L-0.15 5.03291L-0.149992 5.03331L-2.69158e-05 5.03006ZM0.115556 4.84916L0.0516838 4.71344L0.0515603 4.7135L0.115556 4.84916ZM9.07085 0.634685L9.13472 0.770407L9.13482 0.770362L9.07085 0.634685ZM9.2821 0.650089L9.19866 0.774743L9.19894 0.774925L9.2821 0.650089ZM9.36904 0.833945L9.51799 0.851727L9.518 0.851576L9.36904 0.833945ZM8.45704 8.47317L8.60597 8.491L8.60598 8.49095L8.45704 8.47317ZM8.3537 8.62227L8.28249 8.49024L8.28168 8.49069L8.3537 8.62227ZM0.635956 5.15543L8.01791 8.29837L8.13543 8.02234L0.753476 4.87941L0.635956 5.15543ZM8.22562 8.17813L9.0625 1.16691L8.76462 1.13135L7.92773 8.14258L8.22562 8.17813ZM8.84968 1.01341L0.630839 4.8817L0.758594 5.15314L8.97744 1.28485L8.84968 1.01341ZM8.25098 8.49833C8.24233 8.49833 8.23308 8.49656 8.22387 8.49272L8.10835 8.76958C8.15309 8.78825 8.20153 8.79833 8.25098 8.79833V8.49833ZM8.22487 8.49314L0.181579 5.06859L0.0640585 5.34462L8.10735 8.76916L8.22487 8.49314ZM0.181603 5.0686C0.159717 5.05928 0.150252 5.04125 0.149938 5.0268L-0.149992 5.03331C-0.146985 5.17172 -0.0605815 5.29153 0.0640352 5.34461L0.181603 5.0686ZM0.149946 5.02721C0.149675 5.01292 0.158152 4.99492 0.179552 4.98483L0.0515603 4.7135C-0.0710519 4.77134 -0.152634 4.89434 -0.15 5.03291L0.149946 5.02721ZM0.179428 4.98488L9.13472 0.770407L9.00698 0.498964L0.0516838 4.71344L0.179428 4.98488ZM9.13482 0.770362C9.15554 0.760595 9.18067 0.762702 9.19866 0.774742L9.36553 0.525436C9.25902 0.454139 9.12188 0.444792 9.00688 0.499009L9.13482 0.770362ZM9.19894 0.774925C9.21588 0.786213 9.22172 0.802517 9.22008 0.816315L9.518 0.851576C9.53339 0.721607 9.47282 0.596908 9.36526 0.525253L9.19894 0.774925ZM9.2201 0.816164L8.3081 8.45539L8.60598 8.49095L9.51799 0.851727L9.2201 0.816164ZM8.3081 8.45534C8.30663 8.46758 8.29858 8.48157 8.28249 8.49025L8.42491 8.75428C8.52378 8.70096 8.5925 8.60356 8.60597 8.491L8.3081 8.45534ZM8.28168 8.49069C8.27273 8.49558 8.26213 8.49833 8.25098 8.49833V8.79833C8.3108 8.79833 8.37117 8.7837 8.42572 8.75384L8.28168 8.49069Z" fill="#4DA1FF"/>
<path fill-rule="evenodd" clip-rule="evenodd" d="M3.90158 9.88177C3.88269 9.88177 3.8636 9.8792 3.84472 9.87427C3.75487 9.84978 3.69344 9.77138 3.69407 9.68271L3.72 6.52298C3.72042 6.47579 3.73868 6.43037 3.77126 6.39482L9.00341 0.682436C9.07895 0.600283 9.21009 0.591791 9.29642 0.66328C9.38274 0.735164 9.39166 0.859775 9.31634 0.941928L4.13461 6.59921L4.1149 8.97236L5.25828 7.1889C5.31825 7.09569 5.44586 7.06626 5.5436 7.12313C5.64134 7.17981 5.67226 7.30166 5.61249 7.39448L4.07879 9.78718C4.0404 9.84701 3.97254 9.88177 3.90158 9.88177Z" fill="#4DA1FF"/>
<path d="M3.90158 9.88177C3.88269 9.88177 3.8636 9.8792 3.84472 9.87427C3.75487 9.84978 3.69344 9.77138 3.69407 9.68271L3.72 6.52298C3.72042 6.47579 3.73868 6.43037 3.77126 6.39482L9.00341 0.682436C9.07895 0.600283 9.21009 0.591791 9.29642 0.66328C9.38274 0.735164 9.39166 0.859775 9.31634 0.941928L4.13461 6.59921L4.1149 8.97236L5.25828 7.1889C5.31825 7.09568 5.44586 7.06626 5.5436 7.12313C5.64134 7.17981 5.67226 7.30166 5.61249 7.39448L4.07879 9.78718C4.0404 9.84701 3.97254 9.88177 3.90158 9.88177" stroke="#4DA1FF" stroke-width="0.3"/>
</g>
<defs>
<clipPath id="clip0">
<rect width="10" height="10" fill="white" transform="translate(0 0.416656)"/>
</clipPath>
</defs>
</svg>
