<svg width="20" height="20" viewBox="0 0 20 20" fill="none" xmlns="http://www.w3.org/2000/svg">
<path fill-rule="evenodd" clip-rule="evenodd" d="M8.18152 14.5457C4.63614 14.5457 1.81836 11.7279 1.81836 8.18259C1.81836 4.63624 4.63614 1.81849 8.18152 1.81849C11.7269 1.81849 14.5447 4.63624 14.5447 8.18259C14.5447 11.7279 11.7269 14.5457 8.18152 14.5457ZM19.7275 18.4543L14.5448 13.2726C15.6367 11.909 16.3633 10.0916 16.3633 8.18255C16.3633 3.63691 12.7273 0 8.18165 0C3.63595 0 0 3.63691 0 8.18255C0 12.7272 3.63595 16.3641 8.18165 16.3641C10.0907 16.3641 11.9092 15.7271 13.2728 14.5456L18.4545 19.7273C18.6366 19.9094 18.9094 20 19.0905 20C19.2727 20 19.5454 19.9094 19.7275 19.7273C20.0908 19.364 20.0908 18.8186 19.7275 18.4543Z" fill="#444444"/>
</svg>
