<svg width="19" height="18" viewBox="0 0 19 18" fill="none" xmlns="http://www.w3.org/2000/svg">
<path d="M18.21 6.33831L12.5686 5.51709L10.0468 0.396152C9.97793 0.255944 9.86462 0.142442 9.72464 0.0734507C9.37359 -0.100141 8.94699 0.0445188 8.77146 0.396152L6.24964 5.51709L0.608313 6.33831C0.452782 6.36057 0.310583 6.43401 0.201711 6.54529C0.0700913 6.68079 -0.00243719 6.86309 6.25366e-05 7.05213C0.00256226 7.24117 0.0798856 7.42149 0.215042 7.55345L4.29662 11.5394L3.33232 17.1677C3.30971 17.2987 3.32418 17.4333 3.37408 17.5564C3.42398 17.6795 3.50732 17.7862 3.61465 17.8643C3.72199 17.9424 3.84901 17.9887 3.98133 17.9982C4.11365 18.0077 4.24596 17.9798 4.36327 17.9177L9.40914 15.2605L14.455 17.9177C14.5928 17.9912 14.7527 18.0157 14.906 17.989C15.2926 17.9222 15.5526 17.555 15.4859 17.1677L14.5217 11.5394L18.6032 7.55345C18.7143 7.4444 18.7876 7.30197 18.8099 7.14618C18.8699 6.75671 18.5988 6.39618 18.21 6.33831Z" fill="#F7D852"/>
</svg>
