<svg width="32" height="33" viewBox="0 0 32 33" fill="none" xmlns="http://www.w3.org/2000/svg">
<path d="M17.8653 14.6346V10.5962L15.8461 8.57693L13.8269 10.5962V11.9423H9.78839V21.3654H21.9038V14.6346H17.8653ZM12.4807 20.0192H11.1345V18.6731H12.4807V20.0192ZM12.4807 17.3269H11.1345V15.9808H12.4807V17.3269ZM12.4807 14.6346H11.1345V13.2885H12.4807V14.6346ZM16.5192 20.0192H15.173V18.6731H16.5192V20.0192ZM16.5192 17.3269H15.173V15.9808H16.5192V17.3269ZM16.5192 14.6346H15.173V13.2885H16.5192V14.6346ZM16.5192 11.9423H15.173V10.5962H16.5192V11.9423ZM20.5576 20.0192H19.2115V18.6731H20.5576V20.0192ZM20.5576 17.3269H19.2115V15.9808H20.5576V17.3269Z" fill="#808FA3"/>
<circle cx="16.1827" cy="16.3173" r="15.4808" stroke="#E9EFF4" stroke-width="0.673077"/>
</svg>
