<svg width="16" height="13" viewBox="0 0 16 13" fill="none" xmlns="http://www.w3.org/2000/svg">
<path fill-rule="evenodd" clip-rule="evenodd" d="M12.1143 10.811C11.7957 10.9129 11.4553 10.7341 11.3547 10.4136C11.2541 10.0931 11.4316 9.75207 11.7508 9.65079C13.3116 9.15787 14.1033 7.89255 14.1033 5.88945C14.1033 3.58829 12.2386 1.7166 9.94579 1.7166C7.95295 1.7166 6.23701 3.14217 5.8646 5.10616L5.74089 5.75933L5.10374 5.57729C4.89926 5.51896 4.69287 5.48947 4.48967 5.48947C3.25256 5.48947 2.2462 6.49968 2.2462 7.74064C2.2462 8.98223 3.25256 9.99244 4.48967 9.99244L4.61338 9.98346C4.95183 9.97064 5.23322 10.2232 5.25053 10.5584C5.26848 10.8943 5.01208 11.1802 4.67748 11.1981L4.6371 11.2013C4.58838 11.2052 4.53967 11.2084 4.48967 11.2084C2.58465 11.2084 1.03473 9.65271 1.03473 7.74064C1.03473 5.82856 2.58465 4.27287 4.48967 4.27287C4.59992 4.27287 4.71017 4.27864 4.82042 4.28954C5.50821 2.06145 7.57604 0.5 9.94579 0.5C12.9065 0.5 15.3147 2.91782 15.3147 5.88945C15.3147 8.44829 14.2084 10.1501 12.1143 10.811ZM7.78693 6.41763C7.78885 6.41571 7.78949 6.4125 7.79142 6.41058C7.91064 6.29135 8.06576 6.23238 8.22152 6.23238C8.37664 6.23238 8.5324 6.29135 8.65099 6.41058C8.65227 6.41186 8.65227 6.41442 8.65419 6.41635L10.3265 8.09446C10.5631 8.33227 10.5631 8.71751 10.3265 8.95467C10.208 9.07326 10.0528 9.13287 9.89771 9.13287C9.74259 9.13287 9.58811 9.07326 9.46953 8.95467L8.82854 8.31112V12.1398C8.82854 12.4756 8.5574 12.7481 8.22216 12.7481C7.88756 12.7481 7.61643 12.4756 7.61643 12.1398V8.30855L6.97287 8.95467C6.85493 9.07326 6.69981 9.13287 6.54469 9.13287C6.38957 9.13287 6.23445 9.07326 6.11651 8.95467C5.87934 8.71751 5.87934 8.33227 6.11651 8.09446L7.78693 6.41763Z" fill="#4DA1FF"/>
<path d="M11.7508 9.65079L11.7056 9.50775L11.7055 9.50781L11.7508 9.65079ZM5.8646 5.10616L5.71722 5.07822L5.71722 5.07825L5.8646 5.10616ZM5.74089 5.75933L5.69968 5.90356L5.85769 5.94871L5.88827 5.78725L5.74089 5.75933ZM5.10374 5.57729L5.14495 5.43306L5.14489 5.43304L5.10374 5.57729ZM4.48967 9.99244V10.1428L4.50052 10.142L4.48967 9.99244ZM4.61338 9.98346L4.6077 9.83348L4.60253 9.83386L4.61338 9.98346ZM5.25053 10.5584L5.10073 10.5662L5.10074 10.5664L5.25053 10.5584ZM4.67748 11.1981L4.66944 11.0483L4.66561 11.0486L4.67748 11.1981ZM4.6371 11.2013L4.6489 11.3509L4.64897 11.3509L4.6371 11.2013ZM4.82042 4.28954L4.80567 4.43881L4.92761 4.45086L4.96375 4.33378L4.82042 4.28954ZM8.65099 6.41058L8.54463 6.51636L8.54492 6.51664L8.65099 6.41058ZM8.65419 6.41635L8.76044 6.31046L8.76026 6.31028L8.65419 6.41635ZM10.3265 8.09446L10.4329 7.98868L10.4328 7.98858L10.3265 8.09446ZM10.3265 8.95467L10.4326 9.06074L10.4327 9.06059L10.3265 8.95467ZM9.46953 8.95467L9.36325 9.06053L9.36347 9.06074L9.46953 8.95467ZM8.82854 8.31112L8.93482 8.20526L8.67854 7.94796V8.31112H8.82854ZM7.61643 8.30855H7.76643V7.9454L7.51015 8.2027L7.61643 8.30855ZM6.97287 8.95467L6.86659 8.84882L6.86652 8.84889L6.97287 8.95467ZM6.11651 8.95467L6.22286 8.84889L6.22257 8.84861L6.11651 8.95467ZM6.11651 8.09446L6.22272 8.20039L6.22278 8.20033L6.11651 8.09446ZM12.0686 10.6681C11.8303 10.7443 11.5739 10.6109 11.4978 10.3686L11.2116 10.4585C11.3368 10.8572 11.7611 11.0815 12.16 10.9538L12.0686 10.6681ZM11.4978 10.3686C11.4219 10.1269 11.5559 9.87001 11.7962 9.79377L11.7055 9.50781C11.3074 9.63412 11.0862 10.0592 11.2116 10.4585L11.4978 10.3686ZM11.796 9.79383C12.6067 9.53778 13.2256 9.07766 13.6395 8.41598C14.0518 7.75688 14.2533 6.90967 14.2533 5.88945H13.9533C13.9533 6.87233 13.7589 7.65933 13.3852 8.25689C13.013 8.85187 12.4557 9.27087 11.7056 9.50775L11.796 9.79383ZM14.2533 5.88945C14.2533 3.50598 12.322 1.5666 9.94579 1.5666V1.8666C12.1552 1.8666 13.9533 3.67061 13.9533 5.88945H14.2533ZM9.94579 1.5666C7.88051 1.5666 6.103 3.04378 5.71722 5.07822L6.01197 5.13411C6.37103 3.24055 8.02538 1.8666 9.94579 1.8666V1.5666ZM5.71722 5.07825L5.59351 5.73142L5.88827 5.78725L6.01198 5.13408L5.71722 5.07825ZM5.78209 5.6151L5.14495 5.43306L5.06253 5.72152L5.69968 5.90356L5.78209 5.6151ZM5.14489 5.43304C4.92763 5.37107 4.70739 5.33947 4.48967 5.33947V5.63947C4.67834 5.63947 4.8709 5.66685 5.06259 5.72154L5.14489 5.43304ZM4.48967 5.33947C3.16921 5.33947 2.0962 6.41734 2.0962 7.74064H2.3962C2.3962 6.58202 3.3359 5.63947 4.48967 5.63947V5.33947ZM2.0962 7.74064C2.0962 9.06455 3.16919 10.1424 4.48967 10.1424V9.84244C3.33593 9.84244 2.3962 8.89992 2.3962 7.74064H2.0962ZM4.50052 10.142L4.62423 10.1331L4.60253 9.83386L4.47882 9.84283L4.50052 10.142ZM4.61906 10.1334C4.8776 10.1236 5.08776 10.3149 5.10073 10.5662L5.40033 10.5507C5.37868 10.1315 5.02606 9.81772 4.6077 9.83357L4.61906 10.1334ZM5.10074 10.5664C5.11429 10.82 4.92098 11.0349 4.66945 11.0484L4.68552 11.3479C5.10318 11.3255 5.42266 10.9687 5.40031 10.5504L5.10074 10.5664ZM4.66561 11.0486L4.62523 11.0518L4.64897 11.3509L4.68935 11.3477L4.66561 11.0486ZM4.62529 11.0518C4.57753 11.0556 4.53358 11.0584 4.48967 11.0584V11.3584C4.54576 11.3584 4.59924 11.3548 4.6489 11.3509L4.62529 11.0518ZM4.48967 11.0584C2.66801 11.0584 1.18473 9.57039 1.18473 7.74064H0.884729C0.884729 9.73503 2.50128 11.3584 4.48967 11.3584V11.0584ZM1.18473 7.74064C1.18473 5.91088 2.66801 4.42287 4.48967 4.42287V4.12287C2.50128 4.12287 0.884729 5.74624 0.884729 7.74064H1.18473ZM4.48967 4.42287C4.59469 4.42287 4.7 4.42837 4.80567 4.43881L4.83518 4.14027C4.72034 4.12892 4.60516 4.12287 4.48967 4.12287V4.42287ZM4.96375 4.33378C5.63241 2.16764 7.64281 0.65 9.94579 0.65V0.35C7.50928 0.35 5.384 1.95526 4.6771 4.2453L4.96375 4.33378ZM9.94579 0.65C12.8231 0.65 15.1647 3.00011 15.1647 5.88945H15.4647C15.4647 2.83552 12.9899 0.35 9.94579 0.35V0.65ZM15.1647 5.88945C15.1647 7.14785 14.8927 8.18254 14.374 8.98019C13.8565 9.77609 13.0864 10.3469 12.0691 10.6679L12.1594 10.954C13.2362 10.6142 14.0664 10.0037 14.6255 9.14373C15.1836 8.28553 15.4647 7.18989 15.4647 5.88945H15.1647ZM7.893 6.5237C7.90504 6.51165 7.91265 6.50007 7.9168 6.49316C7.91894 6.48959 7.92056 6.48657 7.92156 6.48466C7.92249 6.48288 7.92329 6.48129 7.92334 6.48119C7.92361 6.48065 7.92314 6.4816 7.92253 6.48275C7.92187 6.48402 7.92058 6.48642 7.9188 6.4894C7.91537 6.4951 7.90857 6.50556 7.89748 6.51664L7.68535 6.30451C7.67331 6.31656 7.6657 6.32814 7.66155 6.33505C7.65941 6.33862 7.65778 6.34164 7.65678 6.34355C7.65585 6.34533 7.65506 6.34692 7.65501 6.34702C7.65474 6.34756 7.65521 6.34661 7.65581 6.34546C7.65648 6.34418 7.65776 6.34179 7.65955 6.33881C7.66297 6.3331 7.66978 6.32265 7.68086 6.31156L7.893 6.5237ZM7.89748 6.51664C7.98741 6.42671 8.10387 6.38238 8.22152 6.38238V6.08238C8.02765 6.08238 7.83387 6.15599 7.68535 6.30451L7.89748 6.51664ZM8.22152 6.38238C8.33869 6.38238 8.45557 6.42681 8.54463 6.51636L8.75734 6.3048C8.60924 6.1559 8.41459 6.08238 8.22152 6.08238V6.38238ZM8.54492 6.51664C8.53622 6.50794 8.52984 6.49938 8.52526 6.49227C8.52076 6.48527 8.5177 6.47919 8.51583 6.47518C8.51398 6.47123 8.51276 6.46811 8.51235 6.46706C8.51212 6.46649 8.51196 6.46605 8.51198 6.46612C8.51199 6.46614 8.51199 6.46614 8.51201 6.46619C8.51202 6.46623 8.51205 6.46629 8.51208 6.46637C8.51214 6.46652 8.51223 6.46677 8.51234 6.46707C8.51307 6.46896 8.51619 6.47716 8.52147 6.48681C8.52712 6.49715 8.53559 6.50988 8.54812 6.52241L8.76026 6.31028C8.77183 6.32186 8.77957 6.33354 8.78465 6.34282C8.78935 6.3514 8.79202 6.35852 8.79235 6.35938C8.79244 6.35961 8.79255 6.35991 8.79242 6.35955C8.79235 6.35937 8.79209 6.35868 8.79176 6.35786C8.79116 6.35632 8.78974 6.35272 8.78769 6.34832C8.7856 6.34386 8.78232 6.33735 8.77756 6.32996C8.77274 6.32246 8.76608 6.31354 8.75705 6.30451L8.54492 6.51664ZM8.54794 6.52223L10.2203 8.20035L10.4328 7.98858L8.76044 6.31046L8.54794 6.52223ZM10.2202 8.20024C10.3986 8.37962 10.3984 8.67021 10.2203 8.84875L10.4327 9.06059C10.7277 8.7648 10.7275 8.28492 10.4329 7.98868L10.2202 8.20024ZM10.2205 8.84861C10.1309 8.93815 10.0144 8.98287 9.89771 8.98287V9.28287C10.0913 9.28287 10.285 9.20836 10.4326 9.06074L10.2205 8.84861ZM9.89771 8.98287C9.78124 8.98287 9.66526 8.93827 9.5756 8.84861L9.36347 9.06074C9.51097 9.20824 9.70394 9.28287 9.89771 9.28287V8.98287ZM9.57581 8.84882L8.93482 8.20526L8.72226 8.41697L9.36325 9.06053L9.57581 8.84882ZM8.67854 8.31112V12.1398H8.97854V8.31112H8.67854ZM8.67854 12.1398C8.67854 12.3933 8.47404 12.5981 8.22216 12.5981V12.8981C8.64076 12.8981 8.97854 12.558 8.97854 12.1398H8.67854ZM8.22216 12.5981C7.97103 12.5981 7.76643 12.3934 7.76643 12.1398H7.46643C7.46643 12.5579 7.8041 12.8981 8.22216 12.8981V12.5981ZM7.76643 12.1398V8.30855H7.46643V12.1398H7.76643ZM7.51015 8.2027L6.86659 8.84882L7.07915 9.06053L7.7227 8.41441L7.51015 8.2027ZM6.86652 8.84889C6.77778 8.93812 6.6614 8.98287 6.54469 8.98287V9.28287C6.73822 9.28287 6.93208 9.2084 7.07922 9.06045L6.86652 8.84889ZM6.54469 8.98287C6.42798 8.98287 6.3116 8.93812 6.22286 8.84889L6.01015 9.06045C6.1573 9.2084 6.35116 9.28287 6.54469 9.28287V8.98287ZM6.22257 8.84861C6.04406 8.6701 6.04386 8.37973 6.22272 8.20039L6.0103 7.98854C5.71482 8.28481 5.71462 8.76491 6.01044 9.06074L6.22257 8.84861ZM6.22278 8.20033L7.8932 6.52349L7.68066 6.31177L6.01024 7.9886L6.22278 8.20033Z" fill="white"/>
</svg>
