<svg width="17" height="18" viewBox="0 0 17 18" fill="none" xmlns="http://www.w3.org/2000/svg">
<path d="M14.1667 16H2.83333C2.31389 16 1.88889 15.55 1.88889 15V3C1.88889 2.45 2.31389 2 2.83333 2H7.55556C8.075 2 8.5 1.55 8.5 1C8.5 0.45 8.075 0 7.55556 0H1.88889C1.38792 0 0.907478 0.210714 0.553243 0.585786C0.199007 0.960859 0 1.46957 0 2V16C0 17.1 0.85 18 1.88889 18H15.1111C16.15 18 17 17.1 17 16V10C17 9.45 16.575 9 16.0556 9C15.5361 9 15.1111 9.45 15.1111 10V15C15.1111 15.55 14.6861 16 14.1667 16ZM10.3889 1C10.3889 1.55 10.8139 2 11.3333 2H13.7794L5.15667 11.13C4.98008 11.317 4.88087 11.5706 4.88087 11.835C4.88087 12.0994 4.98008 12.353 5.15667 12.54C5.33326 12.727 5.57276 12.832 5.8225 12.832C6.07224 12.832 6.31174 12.727 6.48833 12.54L15.1111 3.41V6C15.1111 6.55 15.5361 7 16.0556 7C16.575 7 17 6.55 17 6V1C17 0.45 16.575 0 16.0556 0H11.3333C10.8139 0 10.3889 0.45 10.3889 1Z" fill="#444444"/>
</svg>
