<svg width="10" height="10" viewBox="0 0 10 10" fill="none" xmlns="http://www.w3.org/2000/svg">
<g clip-path="url(#clip0)">
<path fill-rule="evenodd" clip-rule="evenodd" d="M0.694701 5.01745L8.07666 8.16038L8.91354 1.14916L0.694701 5.01745ZM8.25097 8.64836C8.22191 8.64836 8.19307 8.64244 8.16609 8.63118L0.122804 5.20664C0.0495527 5.17543 0.0016179 5.10651 -4.21746e-05 5.03009C-0.00149474 4.95366 0.0435349 4.88316 0.115541 4.84919L9.07084 0.634716C9.13869 0.602724 9.21983 0.608451 9.28208 0.65012C9.34434 0.691591 9.37754 0.762092 9.36903 0.833976L8.45702 8.4732C8.44955 8.5356 8.41116 8.59129 8.35368 8.6223C8.32193 8.63968 8.28645 8.64836 8.25097 8.64836Z" fill="white"/>
<path d="M0.694701 5.01745L0.630823 4.88173L0.327894 5.02431L0.635941 5.15546L0.694701 5.01745ZM8.07666 8.16038L8.0179 8.2984L8.2019 8.37674L8.2256 8.17816L8.07666 8.16038ZM8.91354 1.14916L9.06249 1.16694L9.09457 0.898174L8.84967 1.01344L8.91354 1.14916ZM8.16609 8.63118L8.10733 8.7692L8.10833 8.76961L8.16609 8.63118ZM0.122804 5.20664L0.06402 5.34464L0.0640432 5.34465L0.122804 5.20664ZM-4.21746e-05 5.03009L-0.150016 5.03294L-0.150007 5.03334L-4.21746e-05 5.03009ZM0.115541 4.84919L0.0516685 4.71347L0.051545 4.71353L0.115541 4.84919ZM9.07084 0.634716L9.13471 0.770438L9.1348 0.770392L9.07084 0.634716ZM9.28208 0.65012L9.19865 0.774773L9.19892 0.774956L9.28208 0.65012ZM9.36903 0.833976L9.51797 0.851757L9.51799 0.851606L9.36903 0.833976ZM8.45702 8.4732L8.60596 8.49103L8.60596 8.49098L8.45702 8.4732ZM8.35368 8.6223L8.28247 8.49027L8.28166 8.49072L8.35368 8.6223ZM0.635941 5.15546L8.0179 8.2984L8.13542 8.02237L0.753461 4.87944L0.635941 5.15546ZM8.2256 8.17816L9.06249 1.16694L8.7646 1.13138L7.92771 8.14261L8.2256 8.17816ZM8.84967 1.01344L0.630823 4.88173L0.758579 5.15317L8.97742 1.28488L8.84967 1.01344ZM8.25097 8.49836C8.24231 8.49836 8.23307 8.49659 8.22386 8.49275L8.10833 8.76961C8.15307 8.78829 8.20152 8.79836 8.25097 8.79836V8.49836ZM8.22485 8.49317L0.181564 5.06862L0.0640432 5.34465L8.10733 8.76919L8.22485 8.49317ZM0.181587 5.06863C0.159702 5.05931 0.150236 5.04128 0.149922 5.02683L-0.150007 5.03334C-0.147001 5.17175 -0.0605967 5.29156 0.06402 5.34464L0.181587 5.06863ZM0.149931 5.02724C0.149659 5.01295 0.158137 4.99495 0.179537 4.98486L0.051545 4.71353C-0.0710672 4.77137 -0.152649 4.89437 -0.150015 5.03294L0.149931 5.02724ZM0.179413 4.98491L9.13471 0.770438L9.00696 0.498994L0.0516685 4.71347L0.179413 4.98491ZM9.1348 0.770392C9.15552 0.760625 9.18066 0.762732 9.19865 0.774773L9.36552 0.525466C9.259 0.454169 9.12186 0.444822 9.00687 0.499039L9.1348 0.770392ZM9.19892 0.774956C9.21586 0.786243 9.2217 0.802547 9.22007 0.816346L9.51799 0.851606C9.53337 0.721637 9.47281 0.596939 9.36524 0.525284L9.19892 0.774956ZM9.22009 0.816195L8.30808 8.45542L8.60596 8.49098L9.51797 0.851757L9.22009 0.816195ZM8.30809 8.45537C8.30662 8.46761 8.29856 8.4816 8.28247 8.49028L8.42489 8.75432C8.52376 8.70099 8.59248 8.60359 8.60596 8.49103L8.30809 8.45537ZM8.28166 8.49072C8.27272 8.49561 8.26212 8.49836 8.25097 8.49836V8.79836C8.31079 8.79836 8.37115 8.78374 8.42571 8.75387L8.28166 8.49072Z" fill="white"/>
<path fill-rule="evenodd" clip-rule="evenodd" d="M3.90158 9.8818C3.88269 9.8818 3.8636 9.87923 3.84472 9.8743C3.75487 9.84981 3.69344 9.77141 3.69407 9.68274L3.72 6.52302C3.72042 6.47582 3.73868 6.4304 3.77126 6.39485L9.00341 0.682466C9.07895 0.600314 9.21009 0.591822 9.29642 0.663311C9.38274 0.735194 9.39166 0.859806 9.31634 0.941959L4.13461 6.59924L4.1149 8.97239L5.25828 7.18893C5.31825 7.09572 5.44586 7.06629 5.5436 7.12317C5.64134 7.17984 5.67226 7.30169 5.61249 7.39451L4.07879 9.78721C4.0404 9.84704 3.97254 9.8818 3.90158 9.8818Z" fill="white"/>
<path d="M3.90158 9.8818C3.88269 9.8818 3.8636 9.87923 3.84472 9.8743C3.75487 9.84981 3.69344 9.77141 3.69407 9.68274L3.72 6.52302C3.72042 6.47582 3.73868 6.4304 3.77126 6.39485L9.00341 0.682466C9.07895 0.600314 9.21009 0.591822 9.29642 0.663311C9.38274 0.735194 9.39166 0.859806 9.31634 0.941959L4.13461 6.59924L4.1149 8.97239L5.25828 7.18893C5.31825 7.09572 5.44586 7.06629 5.5436 7.12317C5.64134 7.17984 5.67226 7.30169 5.61249 7.39451L4.07879 9.78721C4.0404 9.84704 3.97254 9.8818 3.90158 9.8818" stroke="white" stroke-width="0.3"/>
</g>
<defs>
<clipPath id="clip0">
<rect width="10" height="10" fill="white"/>
</clipPath>
</defs>
</svg>
